<svg xmlns="http://www.w3.org/2000/svg" width="236" height="200"><defs><clipPath id="a"><path transform="translate(2749 -316)" fill="#fff" d="M0 0h236v200H0z"/></clipPath></defs><g transform="translate(-2749 316)" clip-path="url(#a)"><g transform="translate(16.749 -782.998)"><circle cx="70" cy="70" r="70" transform="translate(2780 496.998)" fill="#eae7f5" opacity=".5"/><circle cx="48" cy="48" r="48" transform="translate(2802 518.998)" fill="#d5d1e4" opacity=".5"/></g><path d="M2864.27-171.599l-2.019 1.345a9.493 9.493 0 1010.525 15.8l2.019-1.345-10.525-15.8z" fill="#ffad00"/><path d="M2874.673-155.712a9.493 9.493 0 112.639-13.164 9.493 9.493 0 01-2.639 13.164z" fill="#fecc00"/><path d="M2873.665-157.228a7.677 7.677 0 112.134-10.645 7.677 7.677 0 01-2.134 10.645z" fill="#ffad00"/><path d="M2873.665-157.229a6.974 6.974 0 01-.54.326 7.674 7.674 0 00-8.48-12.732c.162-.13.333-.255.509-.372a7.676 7.676 0 118.51 12.778z" fill="#f39a00"/><path d="M2873.297-162.149a3.172 3.172 0 01-.983 1.865l.751 1.128-1.26.84-.718-1.078a6.4 6.4 0 01-1.438.621 4.407 4.407 0 01-1.333.2l-.485-2.2a4.869 4.869 0 001.316-.194 4.169 4.169 0 001.183-.531 1.764 1.764 0 00.561-.513.372.372 0 000-.414.431.431 0 00-.469-.172 5.735 5.735 0 00-.972.295 10 10 0 01-1.454.433 2.484 2.484 0 01-1.274-.091 2.309 2.309 0 01-1.173-.987 2.683 2.683 0 01-.454-1.912 3.2 3.2 0 011.09-1.9l-.738-1.108 1.26-.84.724 1.087a4.916 4.916 0 012.207-.619l.523 2.161a4.232 4.232 0 00-2.1.633q-.814.541-.516.989a.413.413 0 00.455.159 5.569 5.569 0 00.948-.3 8.9 8.9 0 011.44-.453 2.53 2.53 0 011.284.077 2.263 2.263 0 011.175.979 2.673 2.673 0 01.451 1.849z" fill="#fecc00"/><path d="M2843.001-151.795l-.722.993a4.788 4.788 0 007.747 5.63l.72-.99z" fill="#ffad00"/><path d="M2850.705-146.104a4.788 4.788 0 11-1.062-6.691 4.788 4.788 0 011.062 6.69z" fill="#fecc00"/><path d="M2849.963-146.643a3.873 3.873 0 11-.859-5.41 3.872 3.872 0 01.86 5.41z" fill="#ffad00"/><path d="M2849.962-146.644c-.065.085-.129.17-.198.249a3.87 3.87 0 00-1.03-5.145 3.87 3.87 0 00-5.211.61c.051-.087.11-.181.174-.266a3.872 3.872 0 116.265 4.552z" fill="#f39a00"/><path d="M2848.926-148.906a1.6 1.6 0 01-.138 1.054l.553.402-.449.619-.527-.385a3.21 3.21 0 01-.572.546 2.214 2.214 0 01-.596.328l-.615-.956a2.468 2.468 0 00.586-.319 2.113 2.113 0 00.469-.456.891.891 0 00.176-.34.187.187 0 00-.08-.205.217.217 0 00-.25 0 2.926 2.926 0 00-.408.31 5.048 5.048 0 01-.609.463 1.25 1.25 0 01-.618.18 1.164 1.164 0 01-.728-.26 1.354 1.354 0 01-.55-.826 1.619 1.619 0 01.183-1.09l-.545-.394.45-.618.533.388a2.478 2.478 0 01.938-.679l.623.93a2.133 2.133 0 00-.879.667q-.29.399-.07.558a.208.208 0 00.242-.005 2.824 2.824 0 00.395-.308 4.52 4.52 0 01.603-.467 1.278 1.278 0 01.62-.189 1.141 1.141 0 01.727.257 1.349 1.349 0 01.537.796z" fill="#fecc00"/><g><path d="M2889.597-254.491a15.461 15.461 0 1110.342-29.136 15.461 15.461 0 11-10.342 29.136zm-6.856-18.836a12.756 12.756 0 0020.178 14.081 12.756 12.756 0 01-20.755-7.841 20.212 20.212 0 0121.143 7.5 12.76 12.76 0 10-20.566-13.74zm11.586 5.508a5.676 5.676 0 111.9.329 5.682 5.682 0 01-1.9-.329z" fill="#8ac44b"/><path d="M2830.425-254.9a13.043 13.043 0 1114.737-21.525 13.043 13.043 0 11-14.737 21.525zm7.364 0a10.788 10.788 0 01-7.092-2.667 10.759 10.759 0 007.092 2.668zm-3.746-20.856a10.763 10.763 0 00-3.345 18.191 17.047 17.047 0 0117.744-6.582 10.74 10.74 0 00-.56-5.261 10.752 10.752 0 00-13.839-6.348zm12.323 16.6a10.74 10.74 0 001.954-4.285 10.793 10.793 0 01-1.953 4.284zm1.956-4.3l.015-.072zm.024-.118l.007-.037zm-16.332-3.877a4.794 4.794 0 114.5 3.129 4.8 4.8 0 01-4.5-3.129z" fill="#fd9d68"/><path d="M2852.43-274.873a14.887 14.887 0 1111.756 3.5 15.11 15.11 0 01-2.023.137 14.866 14.866 0 01-9.733-3.637zm9.739 1.039c.311 0 .625-.012.941-.037q-.473.036-.941.036a12.243 12.243 0 01-1.375-.077 12.133 12.133 0 001.375.079zm8.275-3.19l.037-.034zm.052-.047a12.263 12.263 0 003-4.247 12.32 12.32 0 01-2.997 4.247zm-9.964-21.218a12.281 12.281 0 00-8.261 19.421 19.46 19.46 0 0121.4-2.9 12.275 12.275 0 00-13.139-16.521zm12.975 16.932l.015-.036zm.044-.105l.009-.022zm.043-.106v-.01zm.041-.1zm-17.436-7.877a5.472 5.472 0 116.159 4.686 5.641 5.641 0 01-.744.05 5.474 5.474 0 01-5.415-4.736z" fill="#56ccf2"/></g><path d="M2913.081-249.51h-92.138a2.194 2.194 0 01-2.194-2.194v-7.3a2.194 2.194 0 012.194-2.194h92.138a2.194 2.194 0 012.194 2.194v7.3a2.195 2.195 0 01-2.194 2.194z" fill="#8b5ab4"/><g><path d="M2878.063-166.69h-21.412a3.045 3.045 0 01-3.036-2.818l-1.422-19.225h30.328l-1.422 19.224a3.043 3.043 0 01-3.036 2.818z" fill="#eee2ca"/><path d="M2878.063-166.69h-21.412a3.045 3.045 0 01-3.036-2.818l-1.422-19.225h30.328l-1.422 19.224a3.043 3.043 0 01-3.036 2.818z" fill="#7c50a1"/></g><g><path d="M2888.4-147.449l-1.776-.791a7.609 7.609 0 10-6.192 13.9l1.776.791z" fill="#ffad00"/><path d="M2882.1-133.596a7.608 7.608 0 1110.046-3.853 7.608 7.608 0 01-10.046 3.853z" fill="#fecc00"/><path d="M2882.694-134.93a6.153 6.153 0 118.118-3.114 6.152 6.152 0 01-8.118 3.114z" fill="#ffad00"/><path d="M2882.695-134.93c-.155-.072-.308-.144-.453-.226a6.15 6.15 0 007.655-3.298 6.15 6.15 0 00-2.668-7.898c.158.054.318.112.467.182a6.152 6.152 0 11-5.001 11.24z" fill="#f39a00"/><path d="M2885.868-137.285a2.541 2.541 0 01-1.685.133l-.443.994-1.109-.495.423-.948a5.11 5.11 0 01-1.039-.705 3.516 3.516 0 01-.704-.82l1.283-1.272a3.92 3.92 0 00.698.81 3.359 3.359 0 00.866.573 1.418 1.418 0 00.586.163.3.3 0 00.277-.186.346.346 0 00-.084-.391 4.662 4.662 0 00-.616-.532 8.061 8.061 0 01-.916-.799 1.99 1.99 0 01-.485-.902 1.85 1.85 0 01.166-1.217 2.15 2.15 0 011.1-1.125 2.569 2.569 0 011.753-.079l.436-.974 1.112.495-.426.957a3.936 3.936 0 011.365 1.23l-1.242 1.278a3.391 3.391 0 00-1.329-1.148q-.715-.32-.891.074a.331.331 0 00.089.373 4.48 4.48 0 00.61.513 7.144 7.144 0 01.923.784 2.028 2.028 0 01.499.902 1.814 1.814 0 01-.162 1.215 2.143 2.143 0 01-1.062 1.096z" fill="#fecc00"/></g><path d="M2910.739-249.509h-86.761l28.215 60.776h30.328z" fill="#9f6cc9"/><path d="M2849.308-249.509h-16.42l24.861 60.776h5.311z" fill="#8b5ab4"/><path d="M2774.86-188.312c.049-.073.101-.141.157-.21a2.165 2.165 0 01-.106-.234 1.951 1.951 0 01-.13-.84 1.95 1.95 0 01.796.3 2.3 2.3 0 01.21.154 2.329 2.329 0 01.237-.11 2.033 2.033 0 01.846-.145 2.026 2.026 0 01-.318.798 2.439 2.439 0 01-.158.21c.039.076.076.154.107.236a1.991 1.991 0 01.13.84 2.01 2.01 0 01-.796-.301c-.072-.048-.14-.1-.206-.152a2.97 2.97 0 01-.238.11 2.015 2.015 0 01-.848.144 2.022 2.022 0 01.317-.8zm37.225 16.237a4.129 4.129 0 01.26-.347 4.081 4.081 0 01-.176-.39 3.261 3.261 0 01-.215-1.396 3.249 3.249 0 011.323.499 4.041 4.041 0 01.346.255 4.163 4.163 0 01.393-.182 3.383 3.383 0 011.407-.239 3.374 3.374 0 01-.526 1.327 4.134 4.134 0 01-.261.349 3.84 3.84 0 01.176.391 3.287 3.287 0 01.216 1.395 3.312 3.312 0 01-1.319-.501 4.075 4.075 0 01-.345-.253 4.171 4.171 0 01-.396.183 3.342 3.342 0 01-1.405.238 3.326 3.326 0 01.522-1.329zm-34.858-45.806a6.678 6.678 0 01.417-.557 6.394 6.394 0 01-.282-.623 5.2 5.2 0 01-.341-2.237 5.228 5.228 0 012.116.8 6.276 6.276 0 01.554.408 6.614 6.614 0 01.63-.291 5.412 5.412 0 012.25-.384 5.412 5.412 0 01-.844 2.12 6.685 6.685 0 01-.418.558 6.378 6.378 0 01.284.626 5.292 5.292 0 01.344 2.235 5.254 5.254 0 01-2.112-.802 6.355 6.355 0 01-.551-.406 6.757 6.757 0 01-.635.296 5.384 5.384 0 01-2.253.38 5.376 5.376 0 01.84-2.123zM2917.928-172.303a4.185 4.185 0 01-.061-.487 5.095 5.095 0 01-.459-.175 3.776 3.776 0 01-1.3-.953 3.854 3.854 0 011.5-.636 4.682 4.682 0 01.492-.068 4.646 4.646 0 01.184-.456 3.8 3.8 0 01.979-1.3 3.707 3.707 0 01.623 1.48 4.556 4.556 0 01.062.485 4.575 4.575 0 01.462.176 3.757 3.757 0 011.3.958 3.911 3.911 0 01-1.5.637 5.643 5.643 0 01-.49.067 4.557 4.557 0 01-.184.456 3.794 3.794 0 01-.982 1.3 3.656 3.656 0 01-.626-1.484zm28.241-16.01a2.731 2.731 0 01-.036-.292 3.583 3.583 0 01-.277-.106 2.246 2.246 0 01-.782-.575 2.325 2.325 0 01.905-.382c.1-.018.2-.032.3-.041a2.648 2.648 0 01.112-.276 2.32 2.32 0 01.589-.783 2.261 2.261 0 01.376.893 2.937 2.937 0 01.037.293c.094.031.185.063.278.1a2.257 2.257 0 01.781.575 2.352 2.352 0 01-.9.387c-.1.017-.2.031-.3.04a2.7 2.7 0 01-.11.275 2.291 2.291 0 01-.591.78 2.229 2.229 0 01-.382-.888zm-17.4-30.654a4.166 4.166 0 01-.06-.486 4.431 4.431 0 01-.461-.175 3.8 3.8 0 01-1.3-.954 3.879 3.879 0 011.5-.635 4.691 4.691 0 01.493-.066 4.434 4.434 0 01.184-.459 3.826 3.826 0 01.979-1.3 3.746 3.746 0 01.624 1.483 4.7 4.7 0 01.061.483 4.369 4.369 0 01.462.176 3.7 3.7 0 011.3.957 3.876 3.876 0 01-1.5.637 4.178 4.178 0 01-.491.066 4.541 4.541 0 01-.182.459 3.79 3.79 0 01-.983 1.294 3.684 3.684 0 01-.626-1.48z" fill="#9f6cc9"/></g></svg>