<svg xmlns="http://www.w3.org/2000/svg" xmlns:xlink="http://www.w3.org/1999/xlink" width="500" zoomAndPan="magnify" viewBox="0 0 375 374.999991" height="500" preserveAspectRatio="xMidYMid meet" version="1.0"><path fill="#caddff" d="M 190.171875 46.570312 C 173.875 49.289062 112.515625 59.53125 84.664062 115.234375 C 57.78125 168.996094 72.449219 244.414062 118.113281 274.101562 C 191.398438 321.753906 308.527344 228.21875 303.097656 189.941406 C 301.0625 175.609375 282.4375 173.15625 279.296875 153.585938 C 274.339844 122.640625 317.246094 105.9375 313.277344 82.917969 C 308.703125 56.359375 244.480469 37.503906 190.171875 46.570312 " fill-opacity="1" fill-rule="nonzero"/><path fill="#99b9ff" d="M 248.425781 222.03125 C 242.878906 218.070312 237.132812 214.378906 231.296875 210.859375 C 219.449219 203.714844 207.164062 197.328125 194.792969 191.140625 C 188.285156 187.886719 181.605469 184.941406 174.992188 181.910156 C 168.339844 178.863281 161.671875 175.839844 155.003906 172.824219 C 148.910156 170.066406 142.816406 167.308594 136.730469 164.53125 C 116.460938 121.589844 94.085938 72.90625 96.832031 72.90625 L 304.445312 67.027344 C 309.359375 67.027344 313.355469 71.019531 313.355469 75.921875 L 313.355469 219.828125 C 313.355469 224.730469 309.359375 228.71875 304.445312 228.71875 L 258.015625 228.71875 C 254.871094 226.417969 251.59375 224.289062 248.425781 222.03125 " fill-opacity="1" fill-rule="nonzero"/><path fill="#000000" d="M 96.855469 73.347656 L 96.84375 73.347656 C 96.851562 73.347656 96.851562 73.347656 96.855469 73.347656 Z M 258.160156 228.28125 L 304.445312 228.28125 C 309.117188 228.28125 312.917969 224.488281 312.917969 219.828125 L 312.917969 75.921875 C 312.917969 71.261719 309.117188 67.46875 304.445312 67.46875 L 97.03125 73.339844 C 96.941406 74.4375 98.589844 80.089844 109.335938 104.199219 C 116.019531 119.199219 125.347656 139.386719 137.058594 164.199219 C 143.1875 166.992188 149.285156 169.753906 155.183594 172.421875 C 161.945312 175.484375 168.5625 178.480469 175.175781 181.511719 C 176.667969 182.195312 178.164062 182.875 179.664062 183.554688 C 184.71875 185.847656 189.945312 188.222656 194.992188 190.746094 C 206.03125 196.269531 219.007812 202.9375 231.523438 210.484375 C 237.945312 214.355469 243.558594 218.015625 248.679688 221.671875 C 250.066406 222.65625 251.492188 223.636719 252.871094 224.578125 C 254.617188 225.773438 256.421875 227.007812 258.160156 228.28125 Z M 304.445312 229.160156 L 257.875 229.160156 L 257.757812 229.074219 C 255.992188 227.78125 254.15625 226.523438 252.375 225.304688 C 250.992188 224.359375 249.5625 223.378906 248.171875 222.386719 C 243.066406 218.746094 237.472656 215.097656 231.070312 211.238281 C 218.578125 203.703125 205.625 197.050781 194.597656 191.53125 C 189.566406 189.015625 184.347656 186.644531 179.300781 184.355469 C 177.800781 183.671875 176.304688 182.992188 174.8125 182.308594 C 168.203125 179.28125 161.585938 176.285156 154.824219 173.222656 C 148.875 170.53125 142.726562 167.75 136.550781 164.933594 L 136.402344 164.867188 L 136.332031 164.71875 C 94.371094 75.816406 95.824219 73.515625 96.300781 72.761719 C 96.421875 72.574219 96.613281 72.46875 96.832031 72.46875 L 304.4375 66.589844 C 309.601562 66.589844 313.792969 70.773438 313.792969 75.921875 L 313.792969 219.828125 C 313.792969 224.972656 309.601562 229.160156 304.445312 229.160156 " fill-opacity="1" fill-rule="nonzero"/><path fill="#ffffff" d="M 89.929688 67.09375 L 300.207031 67.09375 C 304.847656 67.09375 308.613281 70.859375 308.613281 75.507812 L 308.613281 219.804688 C 308.613281 224.449219 304.847656 228.214844 300.207031 228.214844 L 89.929688 228.214844 C 85.289062 228.214844 81.527344 224.449219 81.527344 219.804688 L 81.527344 75.507812 C 81.527344 70.859375 85.289062 67.09375 89.929688 67.09375 " fill-opacity="1" fill-rule="nonzero"/><path fill="#caddff" d="M 96.09375 72.84375 L 294.164062 72.84375 C 298.535156 72.84375 302.078125 76.339844 302.078125 80.65625 L 302.078125 214.652344 C 302.078125 218.964844 298.535156 222.460938 294.164062 222.460938 L 96.09375 222.460938 C 91.71875 222.460938 88.175781 218.964844 88.175781 214.652344 L 88.175781 80.65625 C 88.175781 76.339844 91.71875 72.84375 96.09375 72.84375 " fill-opacity="1" fill-rule="nonzero"/><path fill="#000000" d="M 300.210938 228.65625 L 89.929688 228.65625 C 85.054688 228.65625 81.089844 224.683594 81.089844 219.804688 L 81.089844 75.503906 C 81.089844 70.625 85.054688 66.65625 89.929688 66.65625 L 229.265625 66.632812 C 229.507812 66.632812 229.703125 66.828125 229.703125 67.070312 C 229.703125 67.316406 229.507812 67.511719 229.265625 67.511719 L 89.929688 67.53125 C 85.539062 67.53125 81.964844 71.109375 81.964844 75.503906 L 81.964844 219.804688 C 81.964844 224.199219 85.539062 227.777344 89.929688 227.777344 L 300.210938 227.777344 C 304.601562 227.777344 308.175781 224.199219 308.175781 219.804688 L 308.175781 75.503906 C 308.175781 71.109375 304.601562 67.53125 300.210938 67.53125 L 279.878906 67.363281 C 279.640625 67.363281 279.441406 67.164062 279.445312 66.921875 C 279.445312 66.679688 279.644531 66.484375 279.882812 66.484375 C 279.886719 66.484375 279.886719 66.484375 279.886719 66.484375 L 300.214844 66.65625 C 305.085938 66.65625 309.054688 70.625 309.054688 75.503906 L 309.054688 219.804688 C 309.054688 224.683594 305.085938 228.65625 300.210938 228.65625 " fill-opacity="1" fill-rule="nonzero"/><path fill="#99b9ff" d="M 301.773438 85.875 L 302 80.996094 C 302 76.683594 298.304688 73.246094 293.9375 73.246094 L 95.96875 73.246094 C 91.597656 73.246094 88.019531 76.683594 88.019531 80.996094 L 87.792969 87.003906 L 301.773438 85.875 " fill-opacity="1" fill-rule="nonzero"/><path fill="#caddff" d="M 99.09375 79.949219 C 99.09375 81.351562 97.960938 82.484375 96.558594 82.484375 C 95.160156 82.484375 94.023438 81.351562 94.023438 79.949219 C 94.023438 78.546875 95.160156 77.410156 96.558594 77.410156 C 97.960938 77.410156 99.09375 78.546875 99.09375 79.949219 " fill-opacity="1" fill-rule="nonzero"/><path fill="#caddff" d="M 107.207031 79.777344 C 107.207031 81.179688 106.074219 82.316406 104.671875 82.316406 C 103.273438 82.316406 102.136719 81.179688 102.136719 79.777344 C 102.136719 78.375 103.273438 77.242188 104.671875 77.242188 C 106.074219 77.242188 107.207031 78.375 107.207031 79.777344 " fill-opacity="1" fill-rule="nonzero"/><path fill="#caddff" d="M 115.996094 80.117188 C 115.996094 81.519531 114.863281 82.652344 113.460938 82.652344 C 112.0625 82.652344 110.925781 81.519531 110.925781 80.117188 C 110.925781 78.714844 112.0625 77.578125 113.460938 77.578125 C 114.863281 77.578125 115.996094 78.714844 115.996094 80.117188 " fill-opacity="1" fill-rule="nonzero"/><path fill="#99b9ff" d="M 138.394531 139.066406 L 109.191406 139.066406 L 109.191406 131.648438 L 138.394531 131.648438 L 138.394531 139.066406 " fill-opacity="1" fill-rule="nonzero"/><path fill="#99b9ff" d="M 260.085938 139.394531 L 156.308594 139.394531 L 156.308594 131.976562 L 260.085938 131.976562 L 260.085938 139.394531 " fill-opacity="1" fill-rule="nonzero"/><path fill="#99b9ff" d="M 138.054688 175.992188 L 108.851562 175.992188 L 108.851562 168.574219 L 138.054688 168.574219 L 138.054688 175.992188 " fill-opacity="1" fill-rule="nonzero"/><path fill="#99b9ff" d="M 259.746094 176.320312 L 155.972656 176.320312 L 155.972656 168.902344 L 259.746094 168.902344 L 259.746094 176.320312 " fill-opacity="1" fill-rule="nonzero"/><path fill="#99b9ff" d="M 137.378906 212.257812 L 108.175781 212.257812 L 108.175781 204.839844 L 137.378906 204.839844 L 137.378906 212.257812 " fill-opacity="1" fill-rule="nonzero"/><path fill="#99b9ff" d="M 259.070312 212.585938 L 155.296875 212.585938 L 155.296875 205.167969 L 259.070312 205.167969 L 259.070312 212.585938 " fill-opacity="1" fill-rule="nonzero"/><path fill="#99b9ff" d="M 183.371094 151.921875 L 156.183594 151.921875 L 156.183594 144.503906 L 183.371094 144.503906 L 183.371094 151.921875 " fill-opacity="1" fill-rule="nonzero"/><path fill="#99b9ff" d="M 283.746094 152.253906 L 187.140625 152.253906 L 187.140625 144.835938 L 283.746094 144.835938 L 283.746094 152.253906 " fill-opacity="1" fill-rule="nonzero"/><path fill="#99b9ff" d="M 183.03125 164.121094 L 155.847656 164.121094 L 155.847656 156.703125 L 183.03125 156.703125 L 183.03125 164.121094 " fill-opacity="1" fill-rule="nonzero"/><path fill="#99b9ff" d="M 283.410156 164.449219 L 186.800781 164.449219 L 186.800781 157.03125 L 283.410156 157.03125 L 283.410156 164.449219 " fill-opacity="1" fill-rule="nonzero"/><path fill="#99b9ff" d="M 138.394531 103.203125 L 109.191406 103.203125 L 109.191406 95.785156 L 138.394531 95.785156 L 138.394531 103.203125 " fill-opacity="1" fill-rule="nonzero"/><path fill="#99b9ff" d="M 260.085938 103.53125 L 156.308594 103.53125 L 156.308594 96.113281 L 260.085938 96.113281 L 260.085938 103.53125 " fill-opacity="1" fill-rule="nonzero"/><path fill="#99b9ff" d="M 183.371094 116.058594 L 156.1875 116.058594 L 156.1875 108.640625 L 183.371094 108.640625 L 183.371094 116.058594 " fill-opacity="1" fill-rule="nonzero"/><path fill="#99b9ff" d="M 283.746094 116.390625 L 187.140625 116.390625 L 187.140625 108.972656 L 283.746094 108.972656 L 283.746094 116.390625 " fill-opacity="1" fill-rule="nonzero"/><path fill="#99b9ff" d="M 183.035156 128.257812 L 155.847656 128.257812 L 155.847656 120.839844 L 183.035156 120.839844 L 183.035156 128.257812 " fill-opacity="1" fill-rule="nonzero"/><path fill="#99b9ff" d="M 283.410156 128.585938 L 186.804688 128.585938 L 186.804688 121.167969 L 283.410156 121.167969 L 283.410156 128.585938 " fill-opacity="1" fill-rule="nonzero"/><path fill="#99b9ff" d="M 183.03125 188.519531 L 155.847656 188.519531 L 155.847656 181.101562 L 183.03125 181.101562 L 183.03125 188.519531 " fill-opacity="1" fill-rule="nonzero"/><path fill="#99b9ff" d="M 283.410156 188.847656 L 186.800781 188.847656 L 186.800781 181.429688 L 283.410156 181.429688 L 283.410156 188.847656 " fill-opacity="1" fill-rule="nonzero"/><path fill="#99b9ff" d="M 182.695312 200.71875 L 155.507812 200.71875 L 155.507812 193.300781 L 182.695312 193.300781 L 182.695312 200.71875 " fill-opacity="1" fill-rule="nonzero"/><path fill="#99b9ff" d="M 283.070312 201.046875 L 186.464844 201.046875 L 186.464844 193.628906 L 283.070312 193.628906 L 283.070312 201.046875 " fill-opacity="1" fill-rule="nonzero"/><path fill="#5479f7" d="M 155.480469 111.015625 C 155.480469 120.785156 147.566406 128.703125 137.804688 128.703125 C 128.042969 128.703125 120.128906 120.785156 120.128906 111.015625 C 120.128906 101.242188 128.042969 93.320312 137.804688 93.320312 C 147.566406 93.320312 155.480469 101.242188 155.480469 111.015625 " fill-opacity="1" fill-rule="nonzero"/><path fill="#000000" d="M 137.804688 93.761719 C 128.300781 93.761719 120.566406 101.5 120.566406 111.011719 C 120.566406 120.523438 128.300781 128.265625 137.804688 128.265625 C 147.308594 128.265625 155.042969 120.523438 155.042969 111.011719 C 155.042969 101.5 147.308594 93.761719 137.804688 93.761719 Z M 137.804688 129.144531 C 127.816406 129.144531 119.691406 121.011719 119.691406 111.011719 C 119.691406 101.015625 127.816406 92.882812 137.804688 92.882812 C 147.792969 92.882812 155.921875 101.015625 155.921875 111.011719 C 155.921875 121.011719 147.792969 129.144531 137.804688 129.144531 " fill-opacity="1" fill-rule="nonzero"/><path fill="#5479f7" d="M 232.347656 146.335938 C 232.347656 156.109375 224.433594 164.027344 214.671875 164.027344 C 204.910156 164.027344 196.996094 156.109375 196.996094 146.335938 C 196.996094 136.566406 204.910156 128.644531 214.671875 128.644531 C 224.433594 128.644531 232.347656 136.566406 232.347656 146.335938 " fill-opacity="1" fill-rule="nonzero"/><path fill="#000000" d="M 214.671875 129.085938 C 205.167969 129.085938 197.433594 136.824219 197.433594 146.335938 C 197.433594 155.851562 205.167969 163.589844 214.671875 163.589844 C 224.175781 163.589844 231.910156 155.851562 231.910156 146.335938 C 231.910156 136.824219 224.175781 129.085938 214.671875 129.085938 Z M 214.671875 164.46875 C 204.683594 164.46875 196.554688 156.335938 196.554688 146.335938 C 196.554688 136.339844 204.683594 128.207031 214.671875 128.207031 C 224.660156 128.207031 232.785156 136.339844 232.785156 146.335938 C 232.785156 156.335938 224.660156 164.46875 214.671875 164.46875 " fill-opacity="1" fill-rule="nonzero"/><path fill="#ffffff" d="M 202.386719 112.132812 C 202.386719 121.902344 194.472656 129.824219 184.710938 129.824219 C 174.949219 129.824219 167.035156 121.902344 167.035156 112.132812 C 167.035156 102.359375 174.949219 94.441406 184.710938 94.441406 C 194.472656 94.441406 202.386719 102.359375 202.386719 112.132812 " fill-opacity="1" fill-rule="nonzero"/><path fill="#000000" d="M 184.710938 94.878906 C 175.207031 94.878906 167.472656 102.621094 167.472656 112.132812 C 167.472656 121.644531 175.207031 129.382812 184.710938 129.382812 C 194.214844 129.382812 201.945312 121.644531 201.945312 112.132812 C 201.945312 102.621094 194.214844 94.878906 184.710938 94.878906 Z M 184.710938 130.261719 C 174.722656 130.261719 166.59375 122.128906 166.59375 112.132812 C 166.59375 102.132812 174.722656 94 184.710938 94 C 194.699219 94 202.824219 102.132812 202.824219 112.132812 C 202.824219 122.128906 194.699219 130.261719 184.710938 130.261719 " fill-opacity="1" fill-rule="nonzero"/><path fill="#ffffff" d="M 278.335938 104.734375 C 274.175781 105.027344 270.566406 101.886719 270.273438 97.722656 C 269.984375 93.558594 273.121094 89.949219 277.28125 89.65625 C 281.441406 89.367188 285.050781 92.503906 285.339844 96.667969 C 285.628906 100.832031 282.496094 104.441406 278.335938 104.734375 Z M 292.070312 92.988281 C 292.035156 92.8125 291.882812 92.6875 291.703125 92.683594 L 289.125 92.65625 C 288.972656 92.65625 288.84375 92.5625 288.78125 92.421875 C 288.582031 91.960938 288.355469 91.511719 288.101562 91.082031 C 288.023438 90.953125 288.027344 90.792969 288.117188 90.667969 L 289.601562 88.5625 C 289.703125 88.414062 289.691406 88.21875 289.574219 88.085938 L 288.058594 86.40625 C 287.941406 86.273438 287.746094 86.242188 287.59375 86.332031 L 285.34375 87.597656 C 285.210938 87.671875 285.050781 87.660156 284.929688 87.570312 C 284.527344 87.269531 284.105469 86.996094 283.667969 86.75 C 283.539062 86.675781 283.464844 86.535156 283.476562 86.386719 L 283.710938 83.8125 C 283.730469 83.636719 283.621094 83.46875 283.449219 83.414062 L 281.304688 82.71875 C 281.132812 82.664062 280.949219 82.734375 280.859375 82.886719 L 279.546875 85.105469 C 279.46875 85.234375 279.324219 85.304688 279.175781 85.289062 C 278.679688 85.230469 278.175781 85.207031 277.671875 85.214844 C 277.523438 85.214844 277.382812 85.132812 277.320312 84.996094 L 276.242188 82.648438 C 276.164062 82.488281 275.988281 82.398438 275.8125 82.4375 L 273.609375 82.90625 C 273.433594 82.945312 273.308594 83.097656 273.304688 83.277344 L 273.277344 85.859375 C 273.273438 86.011719 273.183594 86.144531 273.046875 86.203125 C 272.582031 86.402344 272.132812 86.632812 271.703125 86.886719 C 271.574219 86.960938 271.414062 86.957031 271.292969 86.871094 L 269.1875 85.382812 C 269.042969 85.28125 268.84375 85.292969 268.714844 85.414062 L 267.035156 86.925781 C 266.90625 87.046875 266.875 87.242188 266.960938 87.394531 L 268.226562 89.648438 C 268.296875 89.78125 268.285156 89.941406 268.199219 90.0625 C 267.898438 90.464844 267.625 90.886719 267.378906 91.324219 C 267.308594 91.453125 267.164062 91.53125 267.015625 91.519531 L 264.445312 91.28125 C 264.269531 91.265625 264.105469 91.375 264.046875 91.542969 L 263.355469 93.695312 C 263.300781 93.867188 263.371094 94.050781 263.519531 94.140625 L 265.738281 95.457031 C 265.867188 95.535156 265.933594 95.679688 265.917969 95.828125 C 265.863281 96.324219 265.835938 96.828125 265.84375 97.332031 C 265.847656 97.484375 265.761719 97.621094 265.625 97.683594 L 263.28125 98.765625 C 263.121094 98.839844 263.03125 99.019531 263.070312 99.191406 L 263.542969 101.402344 C 263.578125 101.578125 263.734375 101.703125 263.910156 101.703125 L 266.488281 101.734375 C 266.640625 101.738281 266.773438 101.828125 266.832031 101.964844 C 267.035156 102.429688 267.261719 102.878906 267.515625 103.308594 C 267.589844 103.441406 267.585938 103.597656 267.5 103.722656 L 266.011719 105.828125 C 265.910156 105.976562 265.921875 106.171875 266.042969 106.304688 L 267.554688 107.984375 C 267.671875 108.117188 267.867188 108.148438 268.023438 108.058594 L 270.273438 106.792969 C 270.402344 106.71875 270.5625 106.734375 270.683594 106.824219 C 271.085938 107.121094 271.507812 107.394531 271.945312 107.640625 C 272.074219 107.714844 272.152344 107.855469 272.140625 108.003906 L 271.902344 110.578125 C 271.886719 110.757812 271.996094 110.921875 272.164062 110.976562 L 274.3125 111.671875 C 274.484375 111.726562 274.667969 111.65625 274.757812 111.503906 L 276.070312 109.285156 C 276.148438 109.15625 276.292969 109.085938 276.441406 109.101562 C 276.9375 109.160156 277.4375 109.183594 277.945312 109.179688 C 278.09375 109.175781 278.230469 109.257812 278.296875 109.398438 L 279.375 111.742188 C 279.449219 111.902344 279.625 111.992188 279.800781 111.957031 L 282.007812 111.484375 C 282.183594 111.445312 282.308594 111.292969 282.308594 111.113281 L 282.335938 108.53125 C 282.339844 108.382812 282.433594 108.246094 282.570312 108.1875 C 283.035156 107.988281 283.480469 107.757812 283.910156 107.503906 C 284.039062 107.429688 284.199219 107.433594 284.324219 107.519531 L 286.425781 109.007812 C 286.570312 109.109375 286.769531 109.097656 286.902344 108.980469 L 288.578125 107.464844 C 288.710938 107.34375 288.742188 107.148438 288.65625 106.992188 L 287.390625 104.742188 C 287.316406 104.609375 287.328125 104.449219 287.417969 104.328125 C 287.714844 103.925781 287.988281 103.503906 288.234375 103.066406 C 288.308594 102.9375 288.449219 102.859375 288.597656 102.871094 L 291.167969 103.109375 C 291.347656 103.125 291.511719 103.015625 291.566406 102.847656 L 292.261719 100.695312 C 292.316406 100.523438 292.246094 100.339844 292.09375 100.25 L 289.878906 98.933594 C 289.75 98.855469 289.679688 98.714844 289.699219 98.5625 C 289.753906 98.066406 289.777344 97.566406 289.769531 97.058594 C 289.769531 96.90625 289.851562 96.769531 289.988281 96.707031 L 292.332031 95.625 C 292.492188 95.550781 292.582031 95.371094 292.542969 95.199219 L 292.070312 92.988281 " fill-opacity="1" fill-rule="nonzero"/><path fill="#000000" d="M 278.304688 104.296875 L 278.335938 104.734375 L 278.304688 104.296875 C 282.214844 104.023438 285.175781 100.613281 284.902344 96.699219 C 284.628906 92.78125 281.226562 89.820312 277.3125 90.09375 C 273.398438 90.367188 270.4375 93.777344 270.710938 97.691406 C 270.988281 101.609375 274.394531 104.570312 278.304688 104.296875 Z M 277.800781 105.191406 C 273.648438 105.191406 270.132812 101.964844 269.839844 97.753906 C 269.53125 93.355469 272.855469 89.527344 277.25 89.21875 C 281.648438 88.90625 285.46875 92.238281 285.777344 96.636719 C 286.085938 101.035156 282.761719 104.863281 278.367188 105.171875 C 278.175781 105.1875 277.988281 105.191406 277.800781 105.191406 Z M 277.949219 108.738281 C 278.269531 108.738281 278.5625 108.921875 278.691406 109.210938 L 279.753906 111.515625 L 281.871094 111.0625 L 281.898438 108.527344 C 281.90625 108.203125 282.097656 107.910156 282.394531 107.785156 C 282.84375 107.589844 283.28125 107.367188 283.6875 107.125 C 283.964844 106.960938 284.3125 106.976562 284.578125 107.160156 L 286.644531 108.621094 L 288.25 107.167969 L 287.007812 104.957031 C 286.851562 104.675781 286.875 104.328125 287.066406 104.066406 C 287.351562 103.679688 287.617188 103.269531 287.851562 102.851562 C 288.011719 102.570312 288.320312 102.40625 288.640625 102.433594 L 291.164062 102.664062 L 291.832031 100.601562 L 289.652344 99.3125 C 289.378906 99.148438 289.222656 98.835938 289.261719 98.511719 C 289.3125 98.039062 289.339844 97.554688 289.332031 97.0625 C 289.328125 96.738281 289.511719 96.441406 289.804688 96.308594 L 292.105469 95.246094 L 291.652344 93.125 L 289.121094 93.09375 C 288.800781 93.089844 288.511719 92.898438 288.378906 92.597656 C 288.1875 92.152344 287.96875 91.714844 287.722656 91.304688 C 287.558594 91.027344 287.574219 90.675781 287.757812 90.414062 L 289.21875 88.34375 L 287.765625 86.734375 L 285.558594 87.980469 C 285.277344 88.136719 284.929688 88.113281 284.671875 87.921875 C 284.28125 87.636719 283.875 87.371094 283.457031 87.132812 C 283.175781 86.972656 283.011719 86.664062 283.039062 86.347656 L 283.269531 83.816406 L 281.210938 83.148438 L 279.921875 85.328125 C 279.757812 85.605469 279.441406 85.761719 279.125 85.722656 C 278.652344 85.671875 278.167969 85.644531 277.679688 85.652344 C 277.675781 85.652344 277.671875 85.652344 277.667969 85.652344 C 277.347656 85.652344 277.054688 85.46875 276.921875 85.175781 L 275.863281 82.875 L 273.746094 83.328125 L 273.714844 85.863281 C 273.710938 86.183594 273.515625 86.476562 273.222656 86.605469 C 272.773438 86.800781 272.335938 87.019531 271.929688 87.265625 C 271.648438 87.425781 271.300781 87.414062 271.039062 87.230469 L 268.972656 85.769531 L 267.367188 87.222656 L 268.609375 89.433594 C 268.765625 89.714844 268.742188 90.0625 268.550781 90.320312 C 268.265625 90.707031 268 91.117188 267.761719 91.539062 C 267.605469 91.820312 267.292969 91.984375 266.976562 91.957031 L 264.453125 91.722656 L 263.785156 93.785156 L 265.960938 95.078125 C 266.238281 95.242188 266.394531 95.554688 266.355469 95.878906 C 266.300781 96.351562 266.277344 96.835938 266.285156 97.328125 C 266.289062 97.652344 266.101562 97.945312 265.808594 98.082031 L 263.511719 99.144531 L 263.964844 101.265625 L 266.492188 101.296875 C 266.816406 101.296875 267.105469 101.492188 267.234375 101.792969 C 267.425781 102.238281 267.648438 102.671875 267.890625 103.085938 C 268.058594 103.363281 268.042969 103.710938 267.859375 103.972656 L 266.398438 106.042969 L 267.851562 107.65625 L 270.058594 106.410156 C 270.335938 106.253906 270.683594 106.277344 270.945312 106.46875 C 271.332031 106.757812 271.742188 107.023438 272.160156 107.257812 C 272.445312 107.414062 272.605469 107.726562 272.574219 108.042969 L 272.34375 110.574219 L 274.402344 111.242188 L 275.691406 109.0625 C 275.855469 108.785156 276.167969 108.628906 276.492188 108.667969 C 276.964844 108.71875 277.449219 108.746094 277.9375 108.738281 C 277.941406 108.738281 277.945312 108.738281 277.949219 108.738281 Z M 279.71875 112.402344 C 279.402344 112.402344 279.113281 112.222656 278.976562 111.925781 L 277.914062 109.617188 C 277.417969 109.621094 276.914062 109.597656 276.429688 109.542969 L 275.136719 111.726562 C 274.9375 112.058594 274.542969 112.210938 274.175781 112.089844 L 272.03125 111.394531 C 271.664062 111.273438 271.429688 110.921875 271.464844 110.539062 L 271.699219 108.003906 C 271.269531 107.761719 270.851562 107.488281 270.453125 107.195312 L 268.238281 108.441406 C 267.902344 108.632812 267.488281 108.566406 267.226562 108.277344 L 265.714844 106.597656 C 265.457031 106.3125 265.433594 105.890625 265.65625 105.578125 L 267.117188 103.5 C 266.867188 103.074219 266.644531 102.628906 266.445312 102.171875 L 263.90625 102.144531 C 263.519531 102.140625 263.195312 101.875 263.113281 101.496094 L 262.640625 99.285156 C 262.5625 98.90625 262.75 98.53125 263.101562 98.367188 L 265.40625 97.300781 C 265.398438 96.800781 265.425781 96.300781 265.480469 95.8125 L 263.300781 94.519531 C 262.964844 94.320312 262.816406 93.929688 262.9375 93.5625 L 263.632812 91.410156 C 263.75 91.039062 264.105469 90.808594 264.484375 90.84375 L 267.015625 91.078125 C 267.257812 90.644531 267.53125 90.226562 267.824219 89.828125 L 266.578125 87.609375 C 266.390625 87.273438 266.457031 86.859375 266.742188 86.597656 L 268.421875 85.085938 C 268.707031 84.828125 269.125 84.800781 269.441406 85.023438 L 271.511719 86.488281 C 271.933594 86.242188 272.378906 86.011719 272.839844 85.8125 L 272.867188 83.269531 C 272.871094 82.882812 273.140625 82.558594 273.515625 82.476562 L 275.722656 82.007812 C 276.101562 81.925781 276.476562 82.113281 276.640625 82.464844 L 277.703125 84.773438 C 278.199219 84.765625 278.699219 84.792969 279.1875 84.847656 L 280.480469 82.664062 C 280.679688 82.332031 281.070312 82.179688 281.4375 82.300781 L 283.585938 82.996094 C 283.953125 83.117188 284.183594 83.46875 284.148438 83.851562 L 283.917969 86.386719 C 284.347656 86.628906 284.765625 86.902344 285.164062 87.195312 L 287.375 85.945312 C 287.714844 85.757812 288.128906 85.824219 288.390625 86.113281 L 289.902344 87.789062 C 290.15625 88.078125 290.183594 88.5 289.960938 88.8125 L 288.496094 90.886719 C 288.746094 91.3125 288.972656 91.757812 289.171875 92.21875 L 291.710938 92.246094 C 292.09375 92.25 292.421875 92.515625 292.503906 92.894531 L 292.972656 95.105469 C 293.054688 95.484375 292.867188 95.859375 292.515625 96.023438 L 290.210938 97.089844 C 290.214844 97.589844 290.191406 98.089844 290.136719 98.574219 L 292.316406 99.871094 C 292.648438 100.066406 292.796875 100.460938 292.679688 100.828125 L 291.984375 102.980469 C 291.863281 103.347656 291.515625 103.582031 291.128906 103.546875 L 288.597656 103.3125 C 288.355469 103.742188 288.085938 104.164062 287.792969 104.5625 L 289.039062 106.78125 C 289.226562 107.117188 289.160156 107.53125 288.871094 107.789062 L 287.195312 109.304688 C 286.910156 109.5625 286.488281 109.589844 286.171875 109.367188 L 284.105469 107.902344 C 283.679688 108.148438 283.238281 108.375 282.777344 108.578125 L 282.75 111.121094 C 282.742188 111.503906 282.476562 111.832031 282.097656 111.910156 L 279.890625 112.382812 C 279.835938 112.398438 279.777344 112.402344 279.71875 112.402344 " fill-opacity="1" fill-rule="nonzero"/><path fill="#5479f7" d="M 258.046875 76.859375 C 252.640625 78.757812 246.722656 75.90625 244.828125 70.492188 C 242.929688 65.078125 245.777344 59.152344 251.183594 57.253906 C 256.585938 55.355469 262.503906 58.207031 264.402344 63.621094 C 266.296875 69.035156 263.449219 74.964844 258.046875 76.859375 Z M 274.949219 62.054688 L 273.617188 58.25 L 269.246094 58.757812 C 268.777344 57.929688 268.25 57.152344 267.667969 56.429688 L 269.726562 52.542969 L 266.671875 49.914062 L 263.136719 52.539062 C 262.332031 52.066406 261.488281 51.660156 260.613281 51.324219 L 260.457031 46.917969 L 256.5 46.167969 L 254.753906 50.210938 C 253.824219 50.203125 252.890625 50.273438 251.953125 50.425781 L 249.621094 46.6875 L 245.816406 48.023438 L 246.324219 52.402344 C 245.5 52.871094 244.722656 53.398438 244.003906 53.984375 L 240.121094 51.917969 L 237.496094 54.980469 L 240.117188 58.519531 C 239.644531 59.328125 239.238281 60.171875 238.902344 61.050781 L 234.507812 61.207031 L 233.757812 65.171875 L 237.792969 66.917969 C 237.785156 67.847656 237.859375 68.785156 238.007812 69.722656 L 234.28125 72.058594 L 235.613281 75.867188 L 239.984375 75.359375 C 240.449219 76.1875 240.976562 76.964844 241.5625 77.683594 L 239.503906 81.574219 L 242.554688 84.203125 L 246.089844 81.574219 C 246.898438 82.050781 247.742188 82.457031 248.617188 82.792969 L 248.769531 87.199219 L 252.730469 87.945312 L 254.476562 83.90625 C 255.40625 83.914062 256.339844 83.839844 257.273438 83.6875 L 259.609375 87.425781 L 263.410156 86.089844 L 262.90625 81.714844 C 263.730469 81.246094 264.503906 80.71875 265.226562 80.132812 L 269.105469 82.195312 L 271.734375 79.136719 L 269.109375 75.597656 C 269.582031 74.789062 269.988281 73.941406 270.324219 73.066406 L 274.722656 72.910156 L 275.46875 68.945312 L 271.433594 67.199219 C 271.445312 66.269531 271.371094 65.332031 271.21875 64.394531 L 274.949219 62.054688 " fill-opacity="1" fill-rule="nonzero"/><path fill="#000000" d="M 254.621094 57.101562 C 253.515625 57.101562 252.40625 57.289062 251.328125 57.667969 C 246.160156 59.480469 243.429688 65.171875 245.242188 70.347656 C 246.117188 72.855469 247.917969 74.871094 250.3125 76.023438 C 252.703125 77.175781 255.398438 77.324219 257.902344 76.445312 C 263.070312 74.632812 265.800781 68.945312 263.988281 63.765625 C 263.109375 61.257812 261.3125 59.242188 258.917969 58.089844 C 257.554688 57.433594 256.089844 57.101562 254.621094 57.101562 Z M 254.609375 77.890625 C 253.007812 77.890625 251.414062 77.53125 249.929688 76.816406 C 247.328125 75.5625 245.367188 73.367188 244.414062 70.636719 C 242.441406 65.003906 245.414062 58.816406 251.039062 56.839844 C 253.761719 55.882812 256.699219 56.046875 259.300781 57.300781 C 261.902344 58.550781 263.859375 60.746094 264.816406 63.476562 C 266.789062 69.109375 263.816406 75.300781 258.191406 77.273438 C 257.023438 77.6875 255.8125 77.890625 254.609375 77.890625 Z M 249.199219 86.832031 L 252.46875 87.449219 L 254.074219 83.730469 C 254.144531 83.570312 254.308594 83.464844 254.480469 83.464844 C 255.378906 83.476562 256.292969 83.402344 257.207031 83.257812 C 257.378906 83.226562 257.554688 83.308594 257.648438 83.457031 L 259.796875 86.894531 L 262.9375 85.792969 L 262.46875 81.761719 C 262.449219 81.589844 262.535156 81.417969 262.691406 81.328125 C 263.492188 80.875 264.253906 80.355469 264.953125 79.789062 C 265.085938 79.679688 265.277344 79.660156 265.433594 79.742188 L 269.003906 81.644531 L 271.171875 79.117188 L 268.757812 75.859375 C 268.652344 75.71875 268.640625 75.527344 268.730469 75.375 C 269.191406 74.59375 269.589844 73.761719 269.914062 72.910156 C 269.976562 72.746094 270.132812 72.632812 270.308594 72.628906 L 274.355469 72.484375 L 274.972656 69.210938 L 271.261719 67.597656 C 271.101562 67.53125 270.996094 67.371094 271 67.195312 C 271.003906 66.296875 270.933594 65.375 270.785156 64.460938 C 270.757812 64.289062 270.839844 64.113281 270.988281 64.023438 L 274.421875 61.871094 L 273.320312 58.726562 L 269.296875 59.191406 C 269.117188 59.210938 268.949219 59.125 268.863281 58.972656 C 268.410156 58.164062 267.890625 57.402344 267.328125 56.707031 C 267.214844 56.570312 267.195312 56.378906 267.277344 56.222656 L 269.175781 52.644531 L 266.652344 50.472656 L 263.402344 52.890625 C 263.261719 52.996094 263.070312 53.007812 262.917969 52.917969 C 262.132812 52.457031 261.304688 52.058594 260.457031 51.734375 C 260.292969 51.671875 260.179688 51.515625 260.175781 51.339844 L 260.03125 47.285156 L 256.761719 46.664062 L 255.15625 50.382812 C 255.085938 50.542969 254.925781 50.648438 254.753906 50.648438 C 254.753906 50.648438 254.75 50.648438 254.75 50.648438 C 253.859375 50.640625 252.9375 50.710938 252.023438 50.859375 C 251.847656 50.886719 251.675781 50.808594 251.582031 50.660156 L 249.433594 47.21875 L 246.292969 48.320312 L 246.761719 52.351562 C 246.78125 52.527344 246.695312 52.695312 246.539062 52.785156 C 245.734375 53.238281 244.976562 53.757812 244.28125 54.324219 C 244.144531 54.433594 243.953125 54.453125 243.796875 54.371094 L 240.226562 52.46875 L 238.054688 54.996094 L 240.472656 58.253906 C 240.578125 58.398438 240.585938 58.589844 240.5 58.742188 C 240.039062 59.523438 239.640625 60.355469 239.316406 61.203125 C 239.25 61.371094 239.097656 61.480469 238.921875 61.488281 L 234.871094 61.628906 L 234.257812 64.90625 L 237.96875 66.511719 C 238.128906 66.582031 238.234375 66.746094 238.234375 66.921875 C 238.222656 67.820312 238.296875 68.738281 238.441406 69.652344 C 238.472656 69.824219 238.394531 70 238.242188 70.09375 L 234.808594 72.246094 L 235.914062 75.390625 L 239.933594 74.921875 C 240.113281 74.90625 240.277344 74.988281 240.363281 75.144531 C 240.820312 75.949219 241.335938 76.710938 241.902344 77.40625 C 242.015625 77.542969 242.03125 77.734375 241.949219 77.890625 L 240.054688 81.46875 L 242.578125 83.640625 L 245.828125 81.222656 C 245.96875 81.117188 246.160156 81.105469 246.3125 81.195312 C 247.097656 81.65625 247.925781 82.054688 248.773438 82.378906 C 248.9375 82.445312 249.050781 82.601562 249.054688 82.777344 Z M 252.734375 88.382812 C 252.707031 88.382812 252.679688 88.382812 252.652344 88.375 L 248.691406 87.628906 C 248.492188 87.589844 248.339844 87.417969 248.335938 87.214844 L 248.1875 83.09375 C 247.480469 82.808594 246.785156 82.476562 246.121094 82.097656 L 242.816406 84.554688 C 242.65625 84.679688 242.425781 84.671875 242.273438 84.535156 L 239.214844 81.90625 C 239.058594 81.769531 239.019531 81.546875 239.113281 81.367188 L 241.039062 77.734375 C 240.570312 77.136719 240.140625 76.5 239.75 75.828125 L 235.664062 76.304688 C 235.460938 76.324219 235.269531 76.207031 235.199219 76.011719 L 233.863281 72.203125 C 233.796875 72.007812 233.875 71.792969 234.046875 71.683594 L 237.53125 69.5 C 237.421875 68.734375 237.363281 67.964844 237.355469 67.207031 L 233.585938 65.574219 C 233.398438 65.492188 233.292969 65.289062 233.328125 65.089844 L 234.074219 61.121094 C 234.113281 60.921875 234.285156 60.773438 234.492188 60.765625 L 238.601562 60.621094 C 238.886719 59.910156 239.21875 59.214844 239.597656 58.546875 L 237.144531 55.238281 C 237.023438 55.074219 237.027344 54.847656 237.160156 54.691406 L 239.789062 51.632812 C 239.921875 51.476562 240.148438 51.433594 240.328125 51.53125 L 243.957031 53.460938 C 244.550781 52.992188 245.1875 52.558594 245.855469 52.167969 L 245.382812 48.074219 C 245.359375 47.871094 245.480469 47.675781 245.671875 47.609375 L 249.472656 46.273438 C 249.667969 46.207031 249.882812 46.28125 249.992188 46.457031 L 252.171875 49.945312 C 252.941406 49.835938 253.707031 49.777344 254.464844 49.769531 L 256.09375 45.996094 C 256.175781 45.804688 256.378906 45.699219 256.578125 45.738281 L 260.539062 46.484375 C 260.738281 46.523438 260.886719 46.695312 260.894531 46.902344 L 261.042969 51.019531 C 261.75 51.304688 262.441406 51.640625 263.109375 52.015625 L 266.410156 49.558594 C 266.574219 49.433594 266.804688 49.445312 266.960938 49.578125 L 270.015625 52.207031 C 270.167969 52.34375 270.210938 52.566406 270.117188 52.75 L 268.191406 56.378906 C 268.65625 56.976562 269.089844 57.617188 269.484375 58.285156 L 273.566406 57.8125 C 273.773438 57.789062 273.964844 57.910156 274.03125 58.101562 L 275.363281 61.910156 C 275.433594 62.105469 275.359375 62.320312 275.183594 62.429688 L 271.695312 64.613281 C 271.808594 65.378906 271.867188 66.148438 271.875 66.910156 L 275.644531 68.542969 C 275.832031 68.625 275.9375 68.824219 275.902344 69.027344 L 275.152344 72.992188 C 275.117188 73.191406 274.945312 73.34375 274.738281 73.347656 L 270.628906 73.496094 C 270.34375 74.207031 270.011719 74.902344 269.632812 75.566406 L 272.085938 78.875 C 272.210938 79.039062 272.199219 79.265625 272.066406 79.421875 L 269.441406 82.484375 C 269.308594 82.640625 269.085938 82.679688 268.902344 82.585938 L 265.273438 80.65625 C 264.679688 81.121094 264.042969 81.554688 263.375 81.949219 L 263.847656 86.039062 C 263.871094 86.242188 263.75 86.4375 263.558594 86.503906 L 259.753906 87.839844 C 259.5625 87.90625 259.347656 87.832031 259.238281 87.660156 L 257.054688 84.167969 C 256.292969 84.277344 255.519531 84.335938 254.765625 84.34375 L 253.132812 88.121094 C 253.066406 88.28125 252.90625 88.382812 252.734375 88.382812 " fill-opacity="1" fill-rule="nonzero"/><path fill="#99b9ff" d="M 134.097656 241.410156 L 93.101562 241.003906 C 85.6875 241.003906 79.34375 236.160156 78.046875 228.785156 L 71.027344 188.929688 C 70.191406 184.183594 73.804688 179.824219 78.578125 179.824219 L 105.328125 179.824219 L 134.097656 241.410156 " fill-opacity="1" fill-rule="nonzero"/><path fill="#5479f7" d="M 78.578125 180.265625 C 76.449219 180.265625 74.441406 181.207031 73.0625 182.847656 C 71.667969 184.515625 71.082031 186.703125 71.460938 188.855469 L 78.480469 228.710938 C 79.707031 235.691406 85.722656 240.566406 93.101562 240.566406 L 133.402344 240.964844 L 105.050781 180.265625 Z M 134.789062 241.859375 L 93.09375 241.445312 C 85.289062 241.445312 78.917969 236.269531 77.613281 228.863281 L 70.597656 189.007812 C 70.171875 186.597656 70.828125 184.148438 72.390625 182.28125 C 73.933594 180.441406 76.191406 179.386719 78.578125 179.386719 L 105.609375 179.386719 L 134.789062 241.859375 " fill-opacity="1" fill-rule="nonzero"/><path fill="#99b9ff" d="M 109.640625 280.183594 L 102.894531 280.183594 L 102.894531 240.933594 L 109.640625 241.136719 L 109.640625 280.183594 " fill-opacity="1" fill-rule="nonzero"/><path fill="#5479f7" d="M 103.332031 279.746094 L 109.199219 279.746094 L 109.199219 241.566406 L 103.332031 241.386719 Z M 110.078125 280.625 L 102.457031 280.625 L 102.457031 240.480469 L 110.078125 240.710938 L 110.078125 280.625 " fill-opacity="1" fill-rule="nonzero"/><path fill="#99b9ff" d="M 122.195312 276.34375 L 91.855469 276.34375 C 87.121094 276.34375 83.285156 280.183594 83.285156 284.917969 L 130.765625 284.917969 C 130.765625 280.183594 126.925781 276.34375 122.195312 276.34375 " fill-opacity="1" fill-rule="nonzero"/><path fill="#5479f7" d="M 83.734375 284.480469 L 130.3125 284.480469 C 130.085938 280.195312 126.53125 276.78125 122.195312 276.78125 L 91.855469 276.78125 C 87.515625 276.78125 83.964844 280.195312 83.734375 284.480469 Z M 131.203125 285.359375 L 82.84375 285.359375 L 82.84375 284.917969 C 82.84375 279.949219 86.886719 275.902344 91.855469 275.902344 L 122.195312 275.902344 C 127.160156 275.902344 131.203125 279.949219 131.203125 284.917969 L 131.203125 285.359375 " fill-opacity="1" fill-rule="nonzero"/><path fill="#5479f7" d="M 82.117188 211.035156 C 81.910156 211.035156 81.722656 210.886719 81.6875 210.671875 L 78.285156 191.324219 C 78.242188 191.085938 78.402344 190.859375 78.640625 190.816406 C 78.878906 190.777344 79.109375 190.933594 79.148438 191.175781 L 82.550781 210.519531 C 82.59375 210.761719 82.433594 210.988281 82.195312 211.03125 C 82.167969 211.035156 82.144531 211.035156 82.117188 211.035156 " fill-opacity="1" fill-rule="nonzero"/><path fill="#000000" d="M 113.726562 167.257812 C 113.726562 167.257812 117.941406 162.144531 122.273438 164.695312 C 124.800781 166.183594 126.976562 168.707031 130.417969 170.277344 C 131.847656 170.929688 132.683594 171.078125 132.683594 171.078125 C 132.683594 171.078125 130.308594 172.511719 123.507812 172.75 C 116.703125 172.984375 113.726562 167.257812 113.726562 167.257812 " fill-opacity="1" fill-rule="nonzero"/><path fill="#000000" d="M 125.753906 162.800781 C 122.289062 162.242188 120.183594 158.804688 119.550781 156.914062 C 119.117188 155.617188 119.335938 154.929688 119.472656 154.621094 C 119.941406 153.582031 121.125 153.191406 121.601562 153.019531 C 125.996094 151.4375 126.152344 148.109375 129.585938 147.738281 C 132.367188 147.4375 132.425781 149.609375 137.035156 150.011719 C 137.972656 150.09375 139.402344 150.128906 140.847656 151.0625 C 141.539062 151.511719 142.511719 152.140625 142.648438 153.003906 C 142.789062 153.882812 142.101562 155.195312 133.046875 160.027344 C 127.871094 162.792969 126.917969 162.988281 125.753906 162.800781 " fill-opacity="1" fill-rule="nonzero"/><path fill="#ffffff" d="M 134.871094 156.757812 C 134.871094 156.757812 129.816406 154.898438 128.054688 155.003906 C 126.292969 155.105469 126.363281 159.59375 126.363281 159.59375 C 126.363281 159.59375 124.550781 157.53125 123.480469 158.859375 C 122.410156 160.1875 125.21875 161.671875 125.21875 161.671875 L 116.328125 169.824219 L 124.566406 171.964844 L 128.753906 167.402344 C 128.753906 167.402344 130.152344 169.023438 131.429688 168.6875 C 132.710938 168.355469 134.570312 164.996094 134.570312 164.996094 C 135.265625 164.886719 135.714844 164.199219 135.53125 163.519531 L 135.203125 162.308594 C 135.007812 161.574219 134.996094 160.796875 135.175781 160.054688 C 135.414062 159.066406 135.351562 158.027344 134.992188 157.074219 L 134.871094 156.757812 " fill-opacity="1" fill-rule="nonzero"/><path fill="#000000" d="M 117.222656 169.601562 L 124.421875 171.476562 L 128.429688 167.105469 C 128.515625 167.011719 128.632812 166.960938 128.757812 166.960938 C 128.882812 166.964844 129.003906 167.019531 129.085938 167.113281 C 129.425781 167.507812 130.492188 168.480469 131.320312 168.261719 C 132.117188 168.054688 133.503906 166.015625 134.1875 164.78125 C 134.253906 164.664062 134.371094 164.582031 134.503906 164.558594 C 134.714844 164.527344 134.894531 164.410156 135.011719 164.230469 C 135.128906 164.050781 135.160156 163.839844 135.105469 163.632812 L 134.78125 162.425781 C 134.5625 161.617188 134.554688 160.761719 134.75 159.953125 C 134.96875 159.042969 134.910156 158.101562 134.582031 157.230469 L 134.53125 157.101562 C 133.015625 156.554688 129.386719 155.363281 128.078125 155.441406 C 127.066406 155.5 126.78125 158.257812 126.800781 159.585938 C 126.804688 159.769531 126.695312 159.9375 126.523438 160.003906 C 126.351562 160.070312 126.15625 160.023438 126.035156 159.882812 C 125.796875 159.613281 124.984375 158.855469 124.359375 158.855469 C 124.351562 158.855469 124.347656 158.855469 124.34375 158.855469 C 124.140625 158.859375 123.972656 158.949219 123.820312 159.136719 C 123.695312 159.296875 123.652344 159.445312 123.6875 159.617188 C 123.8125 160.226562 124.820312 160.960938 125.425781 161.285156 C 125.550781 161.351562 125.636719 161.472656 125.65625 161.617188 C 125.671875 161.757812 125.621094 161.898438 125.515625 161.996094 Z M 124.566406 172.40625 C 124.53125 172.40625 124.492188 172.402344 124.457031 172.390625 L 116.21875 170.25 C 116.0625 170.210938 115.941406 170.085938 115.902344 169.929688 C 115.863281 169.773438 115.914062 169.609375 116.03125 169.5 L 124.488281 161.746094 C 123.894531 161.351562 123 160.636719 122.828125 159.796875 C 122.738281 159.363281 122.847656 158.945312 123.140625 158.585938 C 123.453125 158.195312 123.863281 157.984375 124.324219 157.976562 C 124.929688 157.960938 125.511719 158.289062 125.953125 158.621094 C 126.042969 157.164062 126.4375 154.65625 128.027344 154.566406 C 129.863281 154.460938 134.8125 156.269531 135.023438 156.34375 C 135.144531 156.386719 135.238281 156.484375 135.285156 156.601562 L 135.402344 156.917969 C 135.796875 157.957031 135.863281 159.078125 135.601562 160.160156 C 135.441406 160.828125 135.449219 161.53125 135.628906 162.195312 L 135.953125 163.40625 C 136.074219 163.847656 136 164.324219 135.746094 164.710938 C 135.539062 165.03125 135.222656 165.269531 134.859375 165.378906 C 134.375 166.226562 132.828125 168.777344 131.542969 169.113281 C 130.425781 169.402344 129.308594 168.550781 128.761719 168.039062 L 124.890625 172.265625 C 124.804688 172.355469 124.6875 172.40625 124.566406 172.40625 " fill-opacity="1" fill-rule="nonzero"/><path fill="#000000" d="M 128.753906 167.839844 C 128.628906 167.839844 128.507812 167.789062 128.417969 167.6875 C 127.261719 166.335938 127.003906 165.03125 126.992188 164.972656 C 126.949219 164.734375 127.105469 164.507812 127.34375 164.460938 C 127.578125 164.417969 127.808594 164.574219 127.855469 164.8125 C 127.859375 164.828125 128.089844 165.957031 129.085938 167.117188 C 129.242188 167.300781 129.222656 167.578125 129.039062 167.734375 C 128.957031 167.808594 128.855469 167.839844 128.753906 167.839844 " fill-opacity="1" fill-rule="nonzero"/><path fill="#ffffff" d="M 137.664062 272.070312 C 138.246094 271.480469 141.621094 260.980469 141.621094 260.980469 L 148.285156 265.738281 L 140.976562 275.566406 L 137.664062 272.070312 " fill-opacity="1" fill-rule="nonzero"/><path fill="#000000" d="M 138.203125 272.003906 L 140.9375 274.886719 L 147.664062 265.835938 L 141.851562 261.6875 C 140.992188 264.351562 139.015625 270.375 138.203125 272.003906 Z M 140.976562 276.007812 C 140.859375 276.007812 140.742188 275.957031 140.660156 275.871094 L 137.34375 272.375 C 137.183594 272.203125 137.183594 271.9375 137.34375 271.769531 C 137.734375 271.253906 139.621094 265.761719 141.203125 260.84375 C 141.246094 260.710938 141.347656 260.605469 141.480469 260.5625 C 141.613281 260.519531 141.761719 260.539062 141.875 260.621094 L 148.539062 265.378906 C 148.636719 265.449219 148.699219 265.554688 148.71875 265.667969 C 148.734375 265.789062 148.707031 265.90625 148.636719 266 L 141.328125 275.828125 C 141.253906 275.933594 141.132812 275.996094 141.003906 276.003906 C 140.996094 276.003906 140.988281 276.007812 140.976562 276.007812 " fill-opacity="1" fill-rule="nonzero"/><path fill="#000000" d="M 149.671875 285.347656 L 145.242188 285.324219 C 142.308594 285.304688 139.582031 283.8125 137.980469 281.351562 L 133.601562 274.410156 C 132.390625 272.488281 133.066406 269.945312 135.070312 268.882812 C 136.898438 267.910156 138.816406 266.960938 139.265625 267.003906 C 140.175781 267.089844 140.542969 271.40625 140.542969 271.40625 L 144.492188 271.5625 C 144.492188 271.5625 146.441406 279.679688 148.160156 280.601562 C 149.410156 281.273438 150.28125 282.261719 150.871094 283.164062 C 151.484375 284.105469 150.800781 285.355469 149.671875 285.347656 " fill-opacity="1" fill-rule="nonzero"/><path fill="#ffffff" d="M 149.226562 284.054688 C 149.207031 284.054688 149.183594 284.054688 149.160156 284.050781 L 143.097656 283.136719 C 141.605469 282.910156 140.300781 282.039062 139.523438 280.738281 L 134.167969 271.78125 C 134.042969 271.574219 134.113281 271.304688 134.320312 271.179688 C 134.527344 271.054688 134.796875 271.121094 134.921875 271.332031 L 140.277344 280.289062 C 140.921875 281.359375 141.996094 282.082031 143.230469 282.269531 L 149.292969 283.179688 C 149.53125 283.21875 149.699219 283.441406 149.660156 283.679688 C 149.628906 283.898438 149.441406 284.054688 149.226562 284.054688 " fill-opacity="1" fill-rule="nonzero"/><path fill="#ffffff" d="M 141.746094 277.320312 C 141.550781 277.320312 141.375 277.191406 141.320312 276.996094 C 141.257812 276.761719 141.394531 276.519531 141.628906 276.457031 L 145.007812 275.535156 C 145.242188 275.472656 145.480469 275.609375 145.546875 275.84375 C 145.609375 276.078125 145.472656 276.320312 145.238281 276.382812 L 141.859375 277.304688 C 141.820312 277.316406 141.78125 277.320312 141.746094 277.320312 " fill-opacity="1" fill-rule="nonzero"/><path fill="#ffffff" d="M 143.503906 279.054688 C 143.304688 279.054688 143.125 278.921875 143.078125 278.722656 C 143.019531 278.484375 143.164062 278.246094 143.398438 278.191406 L 145.664062 277.636719 C 145.898438 277.578125 146.136719 277.722656 146.195312 277.957031 C 146.253906 278.191406 146.109375 278.429688 145.871094 278.488281 L 143.609375 279.042969 C 143.574219 279.050781 143.539062 279.054688 143.503906 279.054688 " fill-opacity="1" fill-rule="nonzero"/><path fill="#ffffff" d="M 160.402344 270.066406 L 168.140625 277.847656 L 172.242188 276.339844 L 165.109375 266.386719 L 160.402344 270.066406 " fill-opacity="1" fill-rule="nonzero"/><path fill="#000000" d="M 161.0625 270.109375 L 168.253906 277.339844 L 171.550781 276.128906 L 165.019531 267.011719 Z M 168.140625 278.289062 C 168.027344 278.289062 167.914062 278.242188 167.828125 278.160156 L 160.09375 270.375 C 160.003906 270.289062 159.957031 270.164062 159.964844 270.039062 C 159.972656 269.914062 160.035156 269.796875 160.132812 269.722656 L 164.839844 266.039062 C 164.933594 265.964844 165.054688 265.933594 165.171875 265.949219 C 165.289062 265.96875 165.394531 266.03125 165.464844 266.128906 L 172.597656 276.085938 C 172.679688 276.195312 172.703125 276.339844 172.664062 276.46875 C 172.621094 276.601562 172.523438 276.707031 172.394531 276.753906 L 168.292969 278.261719 C 168.242188 278.28125 168.191406 278.289062 168.140625 278.289062 " fill-opacity="1" fill-rule="nonzero"/><path fill="#000000" d="M 165.695312 276.628906 C 165.695312 276.628906 165.320312 279.941406 165.957031 282.867188 C 166.292969 284.425781 167.699219 285.523438 169.292969 285.523438 L 188.28125 285.523438 C 189.636719 285.523438 190.253906 283.828125 189.214844 282.953125 C 185.835938 280.121094 179.625 275.796875 171.988281 274.53125 L 169.859375 277.511719 L 165.695312 276.628906 " fill-opacity="1" fill-rule="nonzero"/><path fill="#ffffff" d="M 187.378906 283.347656 L 167.699219 283.347656 C 167.457031 283.347656 167.257812 283.152344 167.257812 282.910156 C 167.257812 282.664062 167.457031 282.46875 167.699219 282.46875 L 187.378906 282.46875 C 187.621094 282.46875 187.816406 282.664062 187.816406 282.910156 C 187.816406 283.152344 187.621094 283.347656 187.378906 283.347656 " fill-opacity="1" fill-rule="nonzero"/><path fill="#ffffff" d="M 176.398438 279.847656 C 176.339844 279.847656 176.285156 279.839844 176.230469 279.816406 C 176.007812 279.722656 175.898438 279.46875 175.992188 279.242188 L 177.035156 276.710938 C 177.125 276.488281 177.382812 276.382812 177.605469 276.476562 C 177.832031 276.566406 177.9375 276.824219 177.84375 277.046875 L 176.804688 279.578125 C 176.734375 279.746094 176.570312 279.847656 176.398438 279.847656 " fill-opacity="1" fill-rule="nonzero"/><path fill="#ffffff" d="M 179.824219 280.511719 C 179.777344 280.511719 179.730469 280.507812 179.683594 280.492188 C 179.453125 280.414062 179.328125 280.167969 179.40625 279.9375 L 180.160156 277.65625 C 180.234375 277.425781 180.484375 277.300781 180.714844 277.375 C 180.945312 277.453125 181.070312 277.699219 180.992188 277.929688 L 180.238281 280.210938 C 180.179688 280.394531 180.007812 280.511719 179.824219 280.511719 " fill-opacity="1" fill-rule="nonzero"/><path fill="#000000" d="M 119.445312 215.617188 C 119.445312 215.617188 154.808594 211.496094 165.324219 220.609375 C 175.839844 229.71875 148.726562 268.898438 148.726562 268.898438 L 140.152344 262.53125 L 148.285156 234.839844 L 115.597656 225.550781 L 119.445312 215.617188 " fill-opacity="1" fill-rule="nonzero"/><path fill="#000000" d="M 99.984375 233.648438 C 105.121094 235.28125 114.3125 237.390625 127.160156 237.214844 C 130.808594 237.164062 134.179688 239.183594 135.835938 242.4375 C 139.640625 249.90625 147.875 263.355469 161.292969 272.070312 L 167.699219 268.617188 L 151.347656 231.773438 C 149.851562 228.410156 147.0625 225.792969 143.609375 224.527344 L 111.199219 212.632812 C 111.199219 212.632812 101.152344 209.820312 96.222656 218.800781 C 95.34375 220.402344 94.746094 221.851562 94.355469 223.144531 C 93.023438 227.578125 95.574219 232.25 99.984375 233.648438 " fill-opacity="1" fill-rule="nonzero"/><path fill="#ffffff" d="M 158.734375 248.859375 C 158.566406 248.859375 158.40625 248.765625 158.335938 248.601562 L 150.945312 231.949219 C 149.507812 228.714844 146.78125 226.160156 143.457031 224.9375 L 127.9375 219.242188 C 127.710938 219.160156 127.59375 218.90625 127.675781 218.679688 C 127.757812 218.453125 128.011719 218.335938 128.238281 218.417969 L 143.757812 224.113281 C 147.304688 225.414062 150.214844 228.140625 151.746094 231.59375 L 159.136719 248.242188 C 159.234375 248.464844 159.136719 248.726562 158.914062 248.824219 C 158.855469 248.847656 158.796875 248.859375 158.734375 248.859375 " fill-opacity="1" fill-rule="nonzero"/><path fill="#ffffff" d="M 150.109375 263.171875 C 149.992188 263.171875 149.878906 263.128906 149.792969 263.039062 C 148.300781 261.488281 146.835938 259.824219 145.433594 258.089844 C 145.28125 257.898438 145.3125 257.625 145.5 257.472656 C 145.6875 257.316406 145.964844 257.347656 146.117188 257.535156 C 147.503906 259.25 148.953125 260.898438 150.425781 262.429688 C 150.59375 262.605469 150.585938 262.882812 150.414062 263.050781 C 150.328125 263.132812 150.21875 263.171875 150.109375 263.171875 " fill-opacity="1" fill-rule="nonzero"/><path fill="#ffffff" d="M 145.773438 258.25 C 145.648438 258.25 145.519531 258.195312 145.433594 258.089844 C 144.746094 257.238281 144.0625 256.351562 143.394531 255.457031 C 143.25 255.265625 143.289062 254.988281 143.484375 254.84375 C 143.679688 254.699219 143.953125 254.738281 144.097656 254.933594 C 144.757812 255.820312 145.4375 256.695312 146.117188 257.535156 C 146.269531 257.726562 146.238281 258 146.050781 258.152344 C 145.96875 258.21875 145.871094 258.25 145.773438 258.25 " fill-opacity="1" fill-rule="nonzero"/><path fill="#ffffff" d="M 165.617188 159.828125 C 165.792969 159.476562 166.675781 158.421875 167.078125 158.121094 L 171.328125 154.167969 C 171.328125 154.167969 171.878906 156.074219 171.210938 157.195312 C 172.511719 157.242188 173.542969 157.464844 173.542969 157.464844 C 173.542969 157.464844 175.484375 155.75 175.96875 155.457031 C 176.453125 155.160156 177.082031 154.695312 177.730469 154.703125 C 178.382812 154.710938 179.03125 155.207031 179.03125 155.207031 L 175.296875 159.941406 L 168.511719 161.8125 L 167.105469 173.503906 L 164.011719 169.359375 L 165.617188 159.828125 " fill-opacity="1" fill-rule="nonzero"/><path fill="#000000" d="M 164.476562 169.246094 L 166.800781 172.363281 L 168.078125 161.757812 C 168.101562 161.582031 168.226562 161.433594 168.398438 161.386719 L 175.042969 159.558594 L 178.378906 155.328125 C 178.183594 155.230469 177.945312 155.144531 177.726562 155.140625 C 177.285156 155.132812 176.828125 155.433594 176.414062 155.695312 C 176.339844 155.742188 176.265625 155.789062 176.199219 155.832031 C 175.867188 156.035156 174.605469 157.113281 173.835938 157.792969 C 173.730469 157.882812 173.585938 157.921875 173.453125 157.890625 C 173.445312 157.890625 172.441406 157.675781 171.195312 157.636719 C 171.039062 157.628906 170.898438 157.542969 170.824219 157.40625 C 170.75 157.269531 170.753906 157.105469 170.832031 156.972656 C 171.144531 156.445312 171.136719 155.644531 171.050781 155.023438 L 167.378906 158.445312 C 167.367188 158.453125 167.355469 158.464844 167.34375 158.472656 C 167.011719 158.71875 166.242188 159.628906 166.039062 159.972656 Z M 167.105469 173.945312 C 166.96875 173.945312 166.839844 173.882812 166.753906 173.769531 L 163.660156 169.621094 C 163.585938 169.523438 163.558594 169.402344 163.578125 169.285156 L 165.183594 159.753906 C 165.191406 159.710938 165.207031 159.671875 165.226562 159.628906 C 165.425781 159.230469 166.324219 158.148438 166.796875 157.785156 L 171.027344 153.847656 C 171.140625 153.742188 171.296875 153.703125 171.445312 153.746094 C 171.589844 153.785156 171.707031 153.898438 171.746094 154.046875 C 171.769531 154.121094 172.183594 155.574219 171.847656 156.792969 C 172.554688 156.847656 173.121094 156.9375 173.417969 156.992188 C 173.917969 156.554688 175.304688 155.34375 175.742188 155.082031 C 175.804688 155.039062 175.875 155 175.945312 154.953125 C 176.4375 154.640625 177.058594 154.261719 177.738281 154.261719 C 178.515625 154.273438 179.21875 154.800781 179.296875 154.859375 C 179.390625 154.933594 179.449219 155.039062 179.464844 155.15625 C 179.480469 155.273438 179.445312 155.390625 179.375 155.480469 L 175.644531 160.214844 C 175.585938 160.289062 175.503906 160.339844 175.414062 160.367188 L 168.914062 162.15625 L 167.539062 173.558594 C 167.519531 173.734375 167.390625 173.882812 167.21875 173.929688 C 167.179688 173.9375 167.140625 173.945312 167.105469 173.945312 " fill-opacity="1" fill-rule="nonzero"/><path fill="#5479f7" d="M 130.980469 172.324219 C 130.980469 172.324219 137.886719 179.105469 150.992188 177.574219 C 164.09375 176.042969 164.480469 162.351562 164.480469 162.351562 L 168.785156 162.351562 C 168.785156 162.351562 175.144531 186.28125 152.460938 193.8125 C 129.78125 201.34375 122.398438 188.136719 122.398438 188.136719 L 130.980469 172.324219 " fill-opacity="1" fill-rule="nonzero"/><path fill="#5479f7" d="M 112.726562 227.863281 C 112.726562 227.863281 98.785156 233.441406 90.917969 228.0625 C 80.988281 221.277344 86.167969 201.949219 89.695312 193.8125 C 92.8125 186.617188 97.597656 181.558594 104.601562 174.144531 C 106.601562 172.03125 107.8125 170.925781 109.660156 170.042969 C 116.964844 166.539062 125.828125 170.507812 130.1875 172.460938 C 133.496094 173.941406 136.039062 175.585938 137.746094 176.816406 C 137.746094 176.816406 123.753906 194.089844 124.039062 204.578125 C 124.320312 215.0625 128.628906 214.625 128.628906 214.625 C 128.628906 214.625 122.683594 224.179688 112.726562 227.863281 " fill-opacity="1" fill-rule="nonzero"/><path fill="#5479f7" d="M 124.320312 178.882812 C 124.71875 182.003906 125.671875 185.96875 127.933594 190.039062 C 135.144531 203.027344 149.613281 206.179688 152.46875 206.742188 L 149.605469 209.933594 C 149.605469 209.933594 118.875 214.980469 109.964844 186.878906 C 109.964844 186.878906 106.578125 176.390625 114.105469 173.796875 C 115.671875 173.257812 117.734375 172.941406 119.703125 173.710938 C 123.117188 175.039062 124.1875 178.429688 124.320312 178.882812 " fill-opacity="1" fill-rule="nonzero"/><path fill="#ffffff" d="M 149.296875 209.308594 C 149.527344 209.171875 151.671875 205.84375 154.027344 205.152344 C 156.382812 204.457031 161.507812 209.632812 161.507812 209.632812 L 149.296875 209.308594 " fill-opacity="1" fill-rule="nonzero"/><path fill="#000000" d="M 149.070312 208.933594 Z M 150.207031 208.894531 L 160.386719 209.164062 C 158.398438 207.328125 155.488281 205.179688 154.152344 205.574219 C 152.558594 206.042969 151.003906 207.890625 150.207031 208.894531 Z M 161.507812 210.074219 C 161.507812 210.074219 161.5 210.074219 161.496094 210.074219 L 149.285156 209.75 C 149.089844 209.746094 148.921875 209.609375 148.871094 209.421875 C 148.824219 209.25 148.890625 209.066406 149.027344 208.960938 C 149.078125 208.910156 149.210938 208.742188 149.328125 208.59375 C 150.097656 207.613281 151.902344 205.316406 153.90625 204.730469 C 156.441406 203.980469 161.277344 208.773438 161.820312 209.324219 C 161.945312 209.453125 161.984375 209.644531 161.914062 209.808594 C 161.839844 209.96875 161.683594 210.074219 161.507812 210.074219 " fill-opacity="1" fill-rule="nonzero"/><path fill="#5479f7" d="M 104.113281 174.664062 C 104.113281 174.664062 99.703125 166.742188 115.597656 165.78125 C 118.222656 165.625 119.070312 165.976562 122.769531 168.097656 C 130.714844 172.640625 132.683594 171.078125 132.683594 171.078125 L 130.980469 176.570312 L 104.113281 174.664062 " fill-opacity="1" fill-rule="nonzero"/><path fill="#000000" d="M 106.035156 173.746094 C 105.964844 173.746094 105.894531 173.730469 105.828125 173.695312 C 105.613281 173.578125 105.535156 173.3125 105.652344 173.097656 C 105.695312 173.019531 110.058594 165.234375 119.339844 169.066406 C 119.5625 169.15625 119.671875 169.414062 119.578125 169.640625 C 119.488281 169.863281 119.230469 169.96875 119.003906 169.878906 C 110.460938 166.351562 106.582031 173.222656 106.421875 173.519531 C 106.34375 173.664062 106.191406 173.746094 106.035156 173.746094 " fill-opacity="1" fill-rule="nonzero"/><path fill="#000000" d="M 124.039062 205.015625 C 123.949219 205.015625 123.859375 204.988281 123.78125 204.929688 C 123.238281 204.535156 110.464844 195.09375 108.554688 184.582031 C 108.511719 184.34375 108.671875 184.117188 108.910156 184.074219 C 109.148438 184.027344 109.375 184.1875 109.417969 184.425781 C 111.265625 194.59375 124.167969 204.125 124.296875 204.222656 C 124.492188 204.363281 124.535156 204.640625 124.394531 204.835938 C 124.308594 204.953125 124.171875 205.015625 124.039062 205.015625 " fill-opacity="1" fill-rule="nonzero"/><path fill="#000000" d="M 129.484375 193.6875 C 129.382812 193.6875 129.277344 193.652344 129.191406 193.578125 C 129.011719 193.414062 128.996094 193.136719 129.160156 192.957031 C 133.714844 187.859375 132.894531 180.648438 132.886719 180.578125 C 132.859375 180.339844 133.03125 180.117188 133.269531 180.089844 C 133.511719 180.058594 133.730469 180.230469 133.757812 180.472656 C 133.796875 180.78125 134.640625 188.140625 129.8125 193.542969 C 129.726562 193.640625 129.605469 193.6875 129.484375 193.6875 " fill-opacity="1" fill-rule="nonzero"/><path fill="#000000" d="M 128.761719 192.242188 C 128.597656 192.242188 128.445312 192.152344 128.367188 192 L 124.003906 183.285156 C 123.894531 183.066406 123.980469 182.804688 124.199219 182.695312 C 124.414062 182.585938 124.679688 182.675781 124.789062 182.890625 L 129.152344 191.605469 C 129.261719 191.820312 129.171875 192.085938 128.957031 192.195312 C 128.894531 192.226562 128.828125 192.242188 128.761719 192.242188 " fill-opacity="1" fill-rule="nonzero"/><path fill="#000000" d="M 116.613281 166.1875 C 116.320312 166.1875 116.003906 166.199219 115.65625 166.222656 C 109.671875 166.582031 105.828125 168.015625 104.535156 170.371094 C 103.4375 172.371094 104.554688 174.429688 104.566406 174.453125 C 104.65625 174.621094 104.632812 174.828125 104.5 174.96875 C 97.925781 181.933594 93.175781 186.964844 90.132812 193.984375 C 87.0625 201.066406 81.265625 220.925781 91.179688 227.703125 C 98.761719 232.882812 112.433594 227.511719 112.574219 227.457031 C 120.894531 224.375 126.425781 217.058594 127.878906 214.964844 C 127.496094 214.855469 127.007812 214.636719 126.503906 214.199219 C 124.800781 212.726562 123.832031 209.726562 123.628906 205.28125 C 123.621094 205.121094 123.703125 204.96875 123.839844 204.886719 C 123.980469 204.804688 124.152344 204.800781 124.289062 204.882812 C 135.144531 211.269531 147.867188 209.734375 149.386719 209.519531 L 151.632812 207.019531 C 147.140625 206.03125 137.597656 203.09375 130.863281 195.101562 C 130.734375 194.949219 130.726562 194.730469 130.839844 194.570312 C 130.953125 194.40625 131.160156 194.339844 131.347656 194.40625 C 137.160156 196.488281 144.21875 196.183594 152.324219 193.492188 C 161.566406 190.421875 167.074219 184.308594 168.695312 175.324219 C 169.746094 169.5 168.738281 164.308594 168.4375 162.980469 L 164.890625 162.980469 C 164.679688 165.339844 163.039062 176.703125 151.042969 178.105469 C 143.722656 178.960938 138.25 177.171875 134.949219 175.523438 C 134.9375 175.519531 134.925781 175.511719 134.914062 175.503906 C 134.183594 175.054688 133.460938 174.613281 132.671875 174.191406 C 132.660156 174.1875 132.648438 174.179688 132.640625 174.171875 C 132.3125 173.957031 132.035156 173.75 131.792969 173.570312 L 131.765625 173.550781 C 131.617188 173.441406 131.554688 173.246094 131.609375 173.070312 L 132.019531 171.746094 C 130.746094 171.914062 127.992188 171.59375 122.554688 168.480469 C 119.371094 166.660156 118.414062 166.1875 116.613281 166.1875 Z M 99.882812 230.859375 C 96.648438 230.859375 93.347656 230.246094 90.6875 228.425781 C 86.261719 225.402344 84.242188 219.519531 84.847656 211.414062 C 85.339844 204.785156 87.484375 197.882812 89.328125 193.636719 C 92.398438 186.550781 97.125 181.503906 103.648438 174.589844 C 103.324219 173.898438 103.183594 172.722656 103.175781 172.507812 C 103.078125 170.117188 104.566406 166.011719 115.605469 165.34375 C 118.3125 165.179688 119.207031 165.554688 122.988281 167.71875 C 130.398438 171.957031 132.40625 170.742188 132.425781 170.730469 C 132.578125 170.609375 132.78125 170.609375 132.9375 170.71875 C 133.097656 170.824219 133.160156 171.03125 133.101562 171.214844 L 132.539062 173.03125 C 132.714844 173.160156 132.902344 173.292969 133.105469 173.429688 C 133.898438 173.855469 134.625 174.292969 135.359375 174.746094 C 138.554688 176.339844 143.847656 178.0625 150.941406 177.234375 C 156.203125 176.617188 160.007812 173.972656 162.242188 169.367188 C 163.925781 165.902344 164.042969 162.566406 164.042969 162.53125 C 164.050781 162.292969 164.246094 162.105469 164.480469 162.105469 L 168.785156 162.105469 C 168.984375 162.105469 169.160156 162.238281 169.207031 162.429688 C 169.273438 162.675781 170.808594 168.5625 169.558594 175.480469 C 168.402344 181.890625 164.519531 190.367188 152.601562 194.324219 L 152.460938 193.90625 L 152.601562 194.324219 C 145 196.847656 138.28125 197.316406 132.589844 195.722656 C 139.476562 203.058594 148.75 205.5625 152.554688 206.3125 C 152.707031 206.34375 152.835938 206.457031 152.882812 206.605469 C 152.933594 206.753906 152.898438 206.917969 152.792969 207.035156 L 149.933594 210.226562 C 149.867188 210.300781 149.777344 210.351562 149.679688 210.367188 C 149.542969 210.386719 136.171875 212.484375 124.554688 206.046875 C 124.878906 210.648438 126.070312 212.640625 127.039062 213.5 C 127.863281 214.234375 128.566406 214.191406 128.59375 214.1875 C 128.757812 214.175781 128.917969 214.257812 129.003906 214.398438 C 129.089844 214.542969 129.09375 214.71875 129.003906 214.859375 C 128.945312 214.957031 122.871094 224.582031 112.886719 228.277344 C 112.511719 228.425781 106.324219 230.855469 99.882812 230.859375 " fill-opacity="1" fill-rule="nonzero"/><path fill="#000000" d="M 191.789062 208.773438 L 165.769531 208.773438 L 185.0625 179.082031 C 185.664062 178.152344 186.710938 177.589844 187.84375 177.589844 L 208.957031 177.589844 C 210.300781 177.589844 211.113281 179.027344 210.398438 180.128906 L 191.789062 208.773438 " fill-opacity="1" fill-rule="nonzero"/><path fill="#ffffff" d="M 197.339844 188.003906 C 196.496094 189.304688 194.675781 190.359375 193.277344 190.359375 C 191.882812 190.359375 191.433594 189.304688 192.28125 188.003906 C 193.125 186.699219 194.945312 185.644531 196.339844 185.644531 C 197.738281 185.644531 198.1875 186.699219 197.339844 188.003906 " fill-opacity="1" fill-rule="nonzero"/><path fill="#000000" d="M 189.820312 211.253906 L 145.25 211.253906 C 144.113281 211.253906 143.1875 210.328125 143.1875 209.1875 L 143.1875 208.558594 L 191.882812 208.558594 L 191.882812 209.1875 C 191.882812 210.328125 190.960938 211.253906 189.820312 211.253906 " fill-opacity="1" fill-rule="nonzero"/><path fill="#ffffff" d="M 190.4375 209.238281 L 168.09375 209.238281 C 167.847656 209.238281 167.652344 209.042969 167.652344 208.800781 C 167.652344 208.558594 167.847656 208.359375 168.09375 208.359375 L 190.4375 208.359375 C 190.679688 208.359375 190.875 208.558594 190.875 208.800781 C 190.875 209.042969 190.679688 209.238281 190.4375 209.238281 " fill-opacity="1" fill-rule="nonzero"/><path fill="#ffffff" d="M 203.253906 211.292969 L 105.65625 211.292969 C 103.835938 211.292969 102.425781 213.195312 102.628906 215.371094 L 109.371094 286.605469 L 114.234375 286.605469 L 110.015625 219.75 C 109.941406 218.574219 110.714844 217.566406 111.699219 217.566406 L 195.476562 217.566406 C 196.945312 217.566406 198.105469 219.070312 197.992188 220.832031 L 193.816406 287.023438 L 198.679688 287.023438 L 205.535156 214.367188 C 205.691406 212.726562 204.625 211.292969 203.253906 211.292969 " fill-opacity="1" fill-rule="nonzero"/><path fill="#000000" d="M 194.28125 286.582031 L 198.28125 286.582031 L 205.097656 214.328125 C 205.171875 213.570312 204.9375 212.816406 204.476562 212.308594 C 204.136719 211.9375 203.703125 211.730469 203.253906 211.730469 L 105.65625 211.730469 C 105.019531 211.730469 104.40625 212.019531 103.925781 212.542969 C 103.289062 213.246094 102.96875 214.289062 103.066406 215.332031 L 109.769531 286.164062 L 113.769531 286.164062 L 109.578125 219.777344 C 109.53125 219.019531 109.78125 218.289062 110.261719 217.777344 C 110.652344 217.359375 111.164062 217.128906 111.699219 217.128906 L 195.476562 217.128906 C 196.21875 217.128906 196.925781 217.449219 197.46875 218.027344 C 198.148438 218.753906 198.5 219.785156 198.429688 220.863281 Z M 198.679688 287.460938 L 193.816406 287.460938 C 193.695312 287.460938 193.578125 287.410156 193.496094 287.324219 C 193.410156 287.234375 193.371094 287.117188 193.378906 286.996094 L 197.554688 220.804688 C 197.605469 219.96875 197.34375 219.179688 196.828125 218.628906 C 196.449219 218.226562 195.972656 218.003906 195.476562 218.003906 L 111.699219 218.003906 C 111.324219 218.003906 111.058594 218.207031 110.902344 218.378906 C 110.589844 218.710938 110.421875 219.210938 110.453125 219.722656 L 114.671875 286.578125 C 114.679688 286.699219 114.636719 286.816406 114.554688 286.90625 C 114.472656 286.992188 114.355469 287.042969 114.234375 287.042969 L 109.371094 287.042969 C 109.144531 287.042969 108.953125 286.871094 108.933594 286.644531 L 102.191406 215.414062 C 102.070312 214.109375 102.464844 212.847656 103.277344 211.953125 C 103.921875 211.242188 104.765625 210.851562 105.65625 210.851562 L 203.253906 210.851562 C 203.953125 210.851562 204.617188 211.160156 205.125 211.71875 C 205.761719 212.414062 206.066406 213.394531 205.972656 214.410156 L 199.121094 287.0625 C 199.097656 287.289062 198.90625 287.460938 198.679688 287.460938 " fill-opacity="1" fill-rule="nonzero"/><path fill="#000000" d="M 162.207031 64.292969 C 162.042969 64.292969 161.886719 64.203125 161.8125 64.046875 C 161.707031 63.824219 161.800781 63.5625 162.019531 63.457031 C 181.199219 54.289062 205.984375 51.238281 222.042969 52.285156 C 222.285156 52.304688 222.46875 52.511719 222.453125 52.753906 C 222.4375 52.996094 222.226562 53.175781 221.984375 53.164062 C 206.042969 52.125 181.433594 55.148438 162.398438 64.25 C 162.335938 64.28125 162.269531 64.292969 162.207031 64.292969 " fill-opacity="1" fill-rule="nonzero"/><path fill="#000000" d="M 165.605469 58.621094 C 165.441406 58.621094 165.285156 58.53125 165.210938 58.375 C 165.105469 58.15625 165.195312 57.894531 165.410156 57.785156 C 179.011719 51.121094 195.570312 49.101562 201.460938 49.15625 C 201.699219 49.160156 201.894531 49.359375 201.894531 49.601562 C 201.890625 49.84375 201.691406 50.035156 201.453125 50.035156 C 195.621094 49.972656 179.257812 51.980469 165.796875 58.578125 C 165.734375 58.605469 165.667969 58.621094 165.605469 58.621094 " fill-opacity="1" fill-rule="nonzero"/><path fill="#000000" d="M 237.640625 250.792969 C 237.5 250.792969 237.363281 250.726562 237.277344 250.601562 C 237.140625 250.402344 237.191406 250.128906 237.390625 249.992188 C 245.09375 244.6875 251.714844 238.984375 257.066406 233.050781 C 257.230469 232.871094 257.507812 232.855469 257.6875 233.019531 C 257.867188 233.179688 257.882812 233.457031 257.71875 233.636719 C 252.320312 239.625 245.648438 245.371094 237.890625 250.714844 C 237.8125 250.769531 237.722656 250.792969 237.640625 250.792969 " fill-opacity="1" fill-rule="nonzero"/><path fill="#000000" d="M 221.796875 266.25 C 221.613281 266.25 221.441406 266.128906 221.382812 265.941406 C 221.308594 265.710938 221.433594 265.464844 221.667969 265.390625 C 229.210938 262.976562 247.300781 253.511719 256.925781 241.5625 C 257.078125 241.375 257.355469 241.34375 257.542969 241.496094 C 257.730469 241.648438 257.761719 241.925781 257.609375 242.113281 C 247.292969 254.917969 228.789062 264.035156 221.933594 266.226562 C 221.890625 266.242188 221.84375 266.25 221.796875 266.25 " fill-opacity="1" fill-rule="nonzero"/><path fill="#000000" d="M 217.476562 257.429688 C 217.445312 257.429688 217.417969 257.425781 217.386719 257.421875 C 217.148438 257.371094 216.996094 257.140625 217.042969 256.902344 L 217.441406 254.941406 C 217.488281 254.703125 217.722656 254.554688 217.957031 254.597656 C 218.195312 254.648438 218.351562 254.878906 218.300781 255.117188 L 217.902344 257.078125 C 217.859375 257.285156 217.675781 257.429688 217.476562 257.429688 " fill-opacity="1" fill-rule="nonzero"/><path fill="#000000" d="M 216.082031 264.289062 C 216.050781 264.289062 216.023438 264.285156 215.992188 264.277344 C 215.757812 264.230469 215.601562 264 215.652344 263.761719 L 216.050781 261.800781 C 216.097656 261.5625 216.328125 261.410156 216.566406 261.460938 C 216.804688 261.507812 216.957031 261.738281 216.910156 261.976562 L 216.511719 263.9375 C 216.46875 264.144531 216.285156 264.289062 216.082031 264.289062 " fill-opacity="1" fill-rule="nonzero"/><path fill="#000000" d="M 214.570312 259.351562 C 214.542969 259.351562 214.511719 259.347656 214.476562 259.34375 L 212.554688 258.921875 C 212.320312 258.871094 212.167969 258.636719 212.21875 258.398438 C 212.273438 258.164062 212.507812 258.011719 212.742188 258.0625 L 214.664062 258.484375 C 214.902344 258.535156 215.050781 258.769531 215 259.007812 C 214.957031 259.210938 214.773438 259.351562 214.570312 259.351562 " fill-opacity="1" fill-rule="nonzero"/><path fill="#000000" d="M 221.304688 260.828125 C 221.273438 260.828125 221.242188 260.824219 221.210938 260.816406 L 219.285156 260.394531 C 219.050781 260.34375 218.898438 260.109375 218.949219 259.871094 C 219.003906 259.632812 219.238281 259.484375 219.472656 259.535156 L 221.398438 259.957031 C 221.632812 260.011719 221.785156 260.242188 221.730469 260.480469 C 221.6875 260.683594 221.507812 260.828125 221.304688 260.828125 " fill-opacity="1" fill-rule="nonzero"/><path fill="#000000" d="M 230.097656 252.4375 C 229.160156 252.859375 228.734375 253.984375 229.148438 254.945312 C 229.351562 255.414062 229.71875 255.773438 230.183594 255.953125 C 230.640625 256.132812 231.136719 256.117188 231.582031 255.917969 C 232.515625 255.496094 232.945312 254.371094 232.527344 253.410156 C 232.328125 252.941406 231.960938 252.582031 231.492188 252.402344 C 231.039062 252.226562 230.542969 252.238281 230.097656 252.4375 Z M 230.839844 256.957031 C 230.511719 256.957031 230.183594 256.894531 229.867188 256.773438 C 229.179688 256.507812 228.640625 255.980469 228.34375 255.296875 C 227.742188 253.894531 228.367188 252.253906 229.738281 251.636719 C 230.402344 251.339844 231.136719 251.320312 231.8125 251.582031 C 232.5 251.851562 233.039062 252.375 233.335938 253.0625 C 233.9375 254.460938 233.3125 256.101562 231.941406 256.71875 C 231.589844 256.878906 231.214844 256.957031 230.839844 256.957031 " fill-opacity="1" fill-rule="nonzero"/></svg>