<svg xmlns="http://www.w3.org/2000/svg" xmlns:xlink="http://www.w3.org/1999/xlink" width="500" zoomAndPan="magnify" viewBox="0 0 375 374.999991" height="500" preserveAspectRatio="xMidYMid meet" version="1.0"><defs><clipPath id="451096e5c3"><path d="M 37.5 50.90625 L 270 50.90625 L 270 284 L 37.5 284 Z M 37.5 50.90625 " clip-rule="nonzero"/></clipPath><clipPath id="1fe84a168b"><path d="M 165 169 L 320.25 169 L 320.25 323.90625 L 165 323.90625 Z M 165 169 " clip-rule="nonzero"/></clipPath></defs><g clip-path="url(#451096e5c3)"><path fill="#182379" d="M 263.167969 137.613281 L 239.621094 137.613281 C 237.085938 137.613281 234.804688 136.074219 233.835938 133.726562 C 233.820312 133.703125 233.8125 133.675781 233.800781 133.652344 C 232.824219 131.300781 233.351562 128.601562 235.148438 126.800781 L 251.796875 110.144531 C 254.238281 107.699219 254.238281 103.738281 251.796875 101.289062 L 219.128906 68.609375 C 216.683594 66.164062 212.722656 66.164062 210.28125 68.609375 L 193.632812 85.265625 C 191.835938 87.0625 189.132812 87.585938 186.785156 86.609375 C 186.761719 86.601562 186.734375 86.589844 186.707031 86.582031 C 184.363281 85.605469 182.824219 83.328125 182.824219 80.789062 L 182.824219 57.230469 C 182.824219 53.773438 180.023438 50.96875 176.566406 50.96875 L 130.371094 50.96875 C 126.914062 50.96875 124.113281 53.773438 124.113281 57.230469 L 124.113281 80.789062 C 124.113281 83.328125 122.574219 85.605469 120.226562 86.582031 C 120.203125 86.589844 120.175781 86.601562 120.152344 86.609375 C 117.804688 87.585938 115.101562 87.0625 113.304688 85.265625 L 96.65625 68.609375 C 94.210938 66.164062 90.25 66.164062 87.808594 68.609375 L 55.140625 101.289062 C 52.695312 103.738281 52.695312 107.699219 55.140625 110.144531 L 71.789062 126.800781 C 73.585938 128.601562 74.109375 131.300781 73.136719 133.652344 C 73.125 133.675781 73.113281 133.703125 73.101562 133.726562 C 72.132812 136.074219 69.851562 137.613281 67.3125 137.613281 L 43.769531 137.613281 C 40.3125 137.613281 37.511719 140.417969 37.511719 143.875 L 37.511719 190.097656 C 37.511719 193.554688 40.3125 196.359375 43.769531 196.359375 L 67.3125 196.359375 C 69.851562 196.359375 72.132812 197.894531 73.101562 200.242188 C 73.113281 200.269531 73.125 200.292969 73.136719 200.320312 C 74.109375 202.667969 73.585938 205.371094 71.789062 207.167969 L 55.140625 223.828125 C 52.695312 226.273438 52.695312 230.234375 55.140625 232.679688 L 87.808594 265.367188 C 90.25 267.808594 94.210938 267.808594 96.65625 265.367188 L 113.304688 248.707031 C 115.101562 246.910156 117.804688 246.386719 120.152344 247.359375 C 120.175781 247.371094 120.203125 247.382812 120.226562 247.394531 C 122.574219 248.363281 124.113281 250.644531 124.113281 253.183594 L 124.113281 276.742188 C 124.113281 280.199219 126.914062 283.003906 130.371094 283.003906 L 163.554688 283.003906 C 165.597656 283.003906 167.476562 281.917969 168.53125 280.167969 C 169.105469 279.21875 169.800781 278.324219 170.617188 277.503906 C 171.203125 276.917969 170.789062 275.921875 169.964844 275.921875 C 162.273438 275.921875 156.011719 269.660156 156.011719 261.960938 L 156.011719 231.167969 C 156.011719 230.738281 155.664062 230.390625 155.234375 230.40625 C 154.648438 230.417969 154.058594 230.425781 153.46875 230.425781 C 118.460938 230.425781 90.082031 202.046875 90.058594 167.027344 C 90.035156 132.011719 118.46875 103.542969 153.46875 103.542969 C 183.980469 103.542969 209.457031 125.109375 215.515625 153.832031 C 216.398438 158.042969 220.519531 160.710938 224.726562 159.808594 C 225.667969 159.605469 226.644531 159.5 227.644531 159.5 L 258.417969 159.5 C 259.144531 159.5 259.855469 159.558594 260.550781 159.667969 C 265.21875 160.382812 269.425781 156.734375 269.425781 152.003906 L 269.425781 143.875 C 269.425781 140.417969 266.625 137.613281 263.167969 137.613281 " fill-opacity="1" fill-rule="nonzero"/></g><g clip-path="url(#1fe84a168b)"><path fill="#5479f7" d="M 243.03125 288.824219 C 219.707031 288.824219 200.796875 269.90625 200.796875 246.570312 C 200.796875 223.230469 219.707031 204.3125 243.03125 204.3125 C 266.355469 204.3125 285.265625 223.230469 285.265625 246.570312 C 285.265625 269.90625 266.355469 288.824219 243.03125 288.824219 Z M 316.097656 227.007812 L 300.414062 227.007812 C 298.722656 227.007812 297.203125 225.980469 296.558594 224.417969 L 296.539062 224.367188 C 295.890625 222.800781 296.234375 221 297.433594 219.804688 L 308.523438 208.707031 C 310.148438 207.082031 310.148438 204.441406 308.523438 202.8125 L 286.761719 181.042969 C 285.136719 179.414062 282.5 179.414062 280.871094 181.042969 L 269.78125 192.136719 C 268.585938 193.335938 266.785156 193.683594 265.222656 193.035156 L 265.167969 193.011719 C 263.605469 192.367188 262.582031 190.847656 262.582031 189.15625 L 262.582031 173.464844 C 262.582031 171.160156 260.71875 169.292969 258.417969 169.292969 L 227.644531 169.292969 C 225.34375 169.292969 223.480469 171.160156 223.480469 173.464844 L 223.480469 189.15625 C 223.480469 190.847656 222.453125 192.367188 220.890625 193.011719 L 220.839844 193.035156 C 219.277344 193.683594 217.476562 193.335938 216.28125 192.136719 L 205.191406 181.042969 C 203.566406 179.414062 200.925781 179.414062 199.296875 181.042969 L 177.539062 202.8125 C 175.914062 204.441406 175.914062 207.082031 177.539062 208.707031 L 188.628906 219.804688 C 189.824219 221 190.175781 222.800781 189.527344 224.367188 L 189.503906 224.417969 C 188.855469 225.980469 187.339844 227.007812 185.648438 227.007812 L 169.964844 227.007812 C 167.664062 227.007812 165.796875 228.871094 165.796875 231.175781 L 165.796875 261.960938 C 165.796875 264.261719 167.664062 266.128906 169.964844 266.128906 L 185.648438 266.128906 C 187.339844 266.128906 188.855469 267.15625 189.503906 268.71875 L 189.527344 268.769531 C 190.175781 270.335938 189.824219 272.132812 188.628906 273.332031 L 177.539062 284.425781 C 175.914062 286.054688 175.914062 288.695312 177.539062 290.324219 L 199.296875 312.09375 C 200.925781 313.71875 203.566406 313.71875 205.191406 312.09375 L 216.28125 301 C 217.476562 299.800781 219.277344 299.449219 220.839844 300.101562 L 220.890625 300.121094 C 222.453125 300.769531 223.480469 302.289062 223.480469 303.980469 L 223.480469 319.671875 C 223.480469 321.976562 225.34375 323.84375 227.644531 323.84375 L 258.417969 323.84375 C 260.71875 323.84375 262.582031 321.976562 262.582031 319.671875 L 262.582031 303.980469 C 262.582031 302.289062 263.605469 300.769531 265.167969 300.121094 L 265.222656 300.101562 C 266.785156 299.449219 268.585938 299.800781 269.78125 301 L 280.871094 312.09375 C 282.5 313.71875 285.136719 313.71875 286.761719 312.09375 L 308.523438 290.324219 C 310.148438 288.695312 310.148438 286.054688 308.523438 284.425781 L 297.433594 273.332031 C 296.234375 272.132812 295.890625 270.335938 296.539062 268.769531 L 296.558594 268.71875 C 297.203125 267.15625 298.722656 266.128906 300.414062 266.128906 L 316.097656 266.128906 C 318.398438 266.128906 320.265625 264.261719 320.265625 261.960938 L 320.265625 231.175781 C 320.265625 228.871094 318.398438 227.007812 316.097656 227.007812 " fill-opacity="1" fill-rule="nonzero"/></g></svg>